<?xml version="1.0" encoding="utf-8"?>
<!-- Generator: Adobe Illustrator 25.1.0, SVG Export Plug-In . SVG Version: 6.00 Build 0)  -->
<svg version="1.1" id="레이어_1" xmlns="http://www.w3.org/2000/svg" xmlns:xlink="http://www.w3.org/1999/xlink" x="0px"
	 y="0px" viewBox="0 0 483.5 256" style="enable-background:new 0 0 483.5 256;" xml:space="preserve">
<style type="text/css">
	.st0{fill:#2EC276;}
</style>
<g>
	<path class="st0" d="M104.2,113c-2-4.6-4.7-8.7-8.1-12.2c-3.5-3.5-7.5-6.3-12.1-8.3s-9.6-3.1-14.9-3.1c-5.2,0-10.2,0.9-14.9,2.9
		s-8.8,4.7-12.4,8.1c-3.6,3.5-6.4,7.5-8.4,12.1s-3.1,9.6-3.1,14.9c0,5.2,0.9,10.2,2.9,14.9c2,4.7,4.7,8.8,8.2,12.4
		c3.5,3.6,7.6,6.4,12.2,8.4c4.7,2,9.6,3.1,14.9,3.1l38.3,0.3l0.3-38.5C107.2,122.7,106.2,117.7,104.2,113z M56.6,156
		c-3.7-1.6-7-3.9-9.8-6.7c-2.8-2.9-5-6.2-6.6-9.9c-1.6-3.8-2.3-7.7-2.3-11.9c0-4.3,0.9-8.3,2.5-12s3.9-6.9,6.7-9.7
		c2.9-2.8,6.2-4.9,9.9-6.5c3.8-1.6,7.7-2.3,11.9-2.3c4.3,0,8.3,0.9,12,2.5s6.9,3.8,9.7,6.7c2.8,2.8,4.9,6.1,6.5,9.8s2.3,7.7,2.3,12
		l-0.2,25.8l-27.4-27.9l6.1-16.8c0.7-1.8-0.3-3.8-2.1-4.5c-1.8-0.7-3.8,0.3-4.5,2.1l-4.9,13.6l-8.6-8.7c-1.4-1.4-3.6-1.4-4.9,0
		c-1.4,1.4-1.4,3.6,0,4.9L73.9,138H58.7c-1.9,0-3.5,1.6-3.5,3.5s1.6,3.5,3.5,3.5h21.8c0.1,0,0.2,0,0.2,0l13.6,13.8l-25.8-0.2
		C64.2,158.5,60.4,157.7,56.6,156z"/>
	<g>
		<path class="st0" d="M124.6,112.5v53.9H114v-53.9H124.6z"/>
		<path class="st0" d="M130.1,129c1.4-3.2,3.3-6.1,5.8-8.5c2.4-2.4,5.3-4.4,8.6-5.8c3.3-1.4,6.8-2.1,10.4-2.1
			c3.8,0,7.3,0.7,10.5,2.1c3.2,1.4,6.1,3.3,8.6,5.8c2.5,2.4,4.4,5.3,5.8,8.5c1.4,3.2,2.1,6.7,2.1,10.5v27h-10.7v-27
			c0-2.2-0.4-4.3-1.3-6.3c-0.8-2-2-3.7-3.5-5.2c-1.5-1.5-3.2-2.6-5.2-3.5c-2-0.8-4.1-1.3-6.4-1.3c-2.2,0-4.3,0.4-6.3,1.3
			c-2,0.8-3.7,2-5.2,3.5c-1.5,1.5-2.6,3.2-3.5,5.2c-0.8,2-1.3,4.1-1.3,6.3v27h-10.7v-27C128.1,135.8,128.8,132.3,130.1,129z"/>
		<path class="st0" d="M206.2,102.9c-2,0.8-3.7,2-5.2,3.5s-2.6,3.2-3.5,5.2c-0.8,2-1.3,4.1-1.3,6.3v5.5h21.6v10.7h-21.6v32.4h-10.7
			v-48.6c0-3.8,0.7-7.3,2.1-10.5c1.4-3.2,3.3-6.1,5.8-8.5s5.4-4.4,8.6-5.8c3.3-1.4,6.8-2.1,10.4-2.1h5.3v10.7h-5.3
			C210.4,101.6,208.2,102,206.2,102.9z"/>
		<path class="st0" d="M249.5,90.9v75.5h-10.7V90.9H249.5z"/>
		<path class="st0" d="M295.6,147.4l7.6,7.6l-3.7,3.7c-2.6,2.6-5.5,4.5-8.8,5.9s-6.7,2-10.3,2c-3.6,0-7-0.7-10.3-2
			c-3.3-1.4-6.2-3.3-8.8-5.9c-2.6-2.6-4.6-5.6-5.9-8.9c-1.3-3.3-1.9-6.7-1.9-10.1s0.6-6.8,1.9-10.1c1.3-3.3,3.2-6.2,5.9-8.9
			c2.6-2.6,5.6-4.6,8.9-5.9c3.3-1.3,6.7-2,10.1-2s6.8,0.7,10.1,2c3.3,1.3,6.3,3.3,8.9,5.9l3.7,3.7l-29.9,29.9c3,1.5,6.3,2,9.7,1.5
			c3.4-0.5,6.4-2.1,8.9-4.6L295.6,147.4z M268.9,128.1c-3.2,3.2-4.8,7-4.8,11.5c0,2.5,0.6,4.8,1.7,7.1c1-1,2.4-2.4,4.4-4.4
			s4-4,6.2-6.2c2.2-2.2,4.3-4.3,6.4-6.3c2-2,3.6-3.6,4.7-4.7c-3-1.5-6.3-2-9.7-1.6C274.4,124,271.4,125.6,268.9,128.1z"/>
		<path class="st0" d="M333.6,112.5c3.8,0,7.3,0.7,10.5,2.1c3.2,1.4,6.1,3.3,8.5,5.8c2.4,2.4,4.4,5.3,5.8,8.5
			c1.4,3.2,2.1,6.7,2.1,10.5v27h-26.9c-3.7,0-7.2-0.7-10.4-2.1c-3.3-1.4-6.2-3.3-8.6-5.8c-2.5-2.5-4.4-5.4-5.8-8.6
			c-1.4-3.3-2.1-6.8-2.1-10.4c0-3.8,0.7-7.3,2.1-10.5c1.4-3.2,3.3-6.1,5.8-8.5s5.4-4.4,8.6-5.8C326.5,113.2,330,112.5,333.6,112.5z
			 M349.9,155.7v-16.3c0-2.2-0.4-4.3-1.3-6.3c-0.8-2-2-3.7-3.5-5.2c-1.5-1.5-3.2-2.6-5.2-3.5c-2-0.8-4.1-1.3-6.3-1.3
			c-2.2,0-4.4,0.4-6.4,1.3c-2,0.8-3.7,2-5.2,3.5c-1.5,1.5-2.6,3.2-3.5,5.2c-0.8,2-1.3,4.1-1.3,6.3c0,2.2,0.4,4.4,1.3,6.4
			c0.8,2,2,3.7,3.5,5.2s3.2,2.6,5.2,3.5c2,0.8,4.1,1.3,6.4,1.3L349.9,155.7L349.9,155.7z"/>
		<path class="st0" d="M396,112.5v10.7h-5.4c-2.2,0-4.3,0.4-6.3,1.3c-2,0.8-3.7,2-5.2,3.5c-1.5,1.5-2.6,3.2-3.5,5.2
			c-0.8,2-1.3,4.1-1.3,6.3v27h-10.8v-27c0-3.8,0.7-7.3,2.1-10.5c1.4-3.2,3.3-6.1,5.8-8.5s5.4-4.4,8.6-5.8c3.3-1.4,6.8-2.1,10.4-2.1
			L396,112.5L396,112.5z"/>
		<path class="st0" d="M401.4,129c1.4-3.2,3.3-6.1,5.8-8.5c2.4-2.4,5.3-4.4,8.6-5.8c3.3-1.4,6.8-2.1,10.4-2.1
			c3.8,0,7.3,0.7,10.5,2.1c3.2,1.4,6.1,3.3,8.6,5.8c2.5,2.4,4.4,5.3,5.8,8.5c1.4,3.2,2.1,6.7,2.1,10.5v27h-10.7v-27
			c0-2.2-0.4-4.3-1.3-6.3c-0.8-2-2-3.7-3.5-5.2c-1.5-1.5-3.2-2.6-5.2-3.5c-2-0.8-4.1-1.3-6.4-1.3c-2.2,0-4.3,0.4-6.3,1.3
			c-2,0.8-3.7,2-5.2,3.5c-1.5,1.5-2.6,3.2-3.5,5.2c-0.8,2-1.3,4.1-1.3,6.3v27H399v-27C399.2,135.8,399.9,132.3,401.4,129z"/>
	</g>
</g>
</svg>
