<?xml version="1.0" encoding="UTF-8" standalone="no"?>
<!-- Created with Inkscape (http://www.inkscape.org/) -->

<svg
   version="1.1"
   id="svg2"
   xml:space="preserve"
   width="174.81467"
   height="61.333332"
   viewBox="0 0 174.81467 61.333332"
   sodipodi:docname="와탭랩스_로고__2022ver (1).ai"
   xmlns:inkscape="http://www.inkscape.org/namespaces/inkscape"
   xmlns:sodipodi="http://sodipodi.sourceforge.net/DTD/sodipodi-0.dtd"
   xmlns="http://www.w3.org/2000/svg"
   xmlns:svg="http://www.w3.org/2000/svg"><defs
     id="defs6"><clipPath
       clipPathUnits="userSpaceOnUse"
       id="clipPath18"><path
         d="M 0,46 H 131.111 V 0 H 0 Z"
         id="path16" /></clipPath></defs><sodipodi:namedview
     id="namedview4"
     pagecolor="#ffffff"
     bordercolor="#666666"
     borderopacity="1.0"
     inkscape:pageshadow="2"
     inkscape:pageopacity="0.0"
     inkscape:pagecheckerboard="0" /><g
     id="g8"
     inkscape:groupmode="layer"
     inkscape:label="와탭랩스_로고__2022ver (1)"
     transform="matrix(1.3333333,0,0,-1.3333333,0,61.333333)"><path
       d="M 0,0 H 131.111 V 46 H 0 Z"
       style="fill:#ffffff;fill-opacity:1;fill-rule:nonzero;stroke:none"
       id="path10" /><g
       id="g12"><g
         id="g14"
         clip-path="url(#clipPath18)"><g
           id="g20"
           transform="translate(103.6341,23.0695)"><path
             d="m 0,0 c 0,-1.079 0.363,-2 1.088,-2.762 0.725,-0.761 1.591,-1.142 2.597,-1.142 1.027,0 1.908,0.366 2.643,1.098 0.735,0.731 1.102,1.62 1.102,2.667 0,1.106 -0.364,2.033 -1.092,2.781 C 5.609,3.391 4.719,3.765 3.666,3.765 2.699,3.765 1.846,3.389 1.108,2.637 0.369,1.886 0,1.007 0,0 M 0.06,-4.212 V -9.07 H -1.907 V 5.394 H 0.079 V 4.053 C 0.583,4.57 1.144,4.962 1.763,5.23 2.383,5.498 3.043,5.632 3.745,5.632 5.394,5.632 6.761,5.086 7.848,3.993 8.934,2.901 9.477,1.53 9.477,-0.119 9.477,-0.881 9.341,-1.606 9.069,-2.295 8.798,-2.984 8.408,-3.596 7.897,-4.132 7.347,-4.709 6.747,-5.134 6.094,-5.409 5.442,-5.684 4.699,-5.821 3.864,-5.821 3.123,-5.821 2.435,-5.687 1.803,-5.419 1.171,-5.151 0.59,-4.748 0.06,-4.212 M -13.491,0 c 0,-1.106 0.366,-2.033 1.098,-2.781 0.732,-0.749 1.628,-1.123 2.687,-1.123 0.967,0 1.82,0.376 2.558,1.128 0.739,0.751 1.108,1.63 1.108,2.637 0,1.073 -0.366,1.992 -1.098,2.757 -0.732,0.764 -1.601,1.147 -2.607,1.147 -1.034,0 -1.916,-0.364 -2.648,-1.093 C -13.125,1.944 -13.491,1.053 -13.491,0 m 7.351,-5.533 v 1.341 c -0.503,-0.523 -1.064,-0.919 -1.683,-1.187 -0.62,-0.268 -1.28,-0.402 -1.982,-0.402 -1.643,0 -3.007,0.547 -4.093,1.644 -1.086,1.096 -1.629,2.468 -1.629,4.117 0,0.769 0.136,1.497 0.407,2.186 0.272,0.688 0.659,1.294 1.163,1.817 0.549,0.577 1.15,1.002 1.803,1.277 0.652,0.275 1.395,0.412 2.23,0.412 0.748,0 1.437,-0.132 2.066,-0.397 0.629,-0.265 1.202,-0.666 1.718,-1.202 v 1.321 h 1.987 V -5.533 Z m -11.752,0 h -2.096 V 6.983 h -3.719 V 8.93 h 9.534 V 6.983 h -3.719 z M -32.616,0 c 0,-1.106 0.366,-2.033 1.098,-2.781 0.731,-0.749 1.627,-1.123 2.687,-1.123 0.967,0 1.819,0.376 2.558,1.128 0.738,0.751 1.107,1.63 1.107,2.637 0,1.073 -0.366,1.992 -1.097,2.757 -0.732,0.764 -1.601,1.147 -2.608,1.147 -1.033,0 -1.916,-0.364 -2.647,-1.093 C -32.25,1.944 -32.616,1.053 -32.616,0 m 7.351,-5.533 v 1.341 c -0.503,-0.523 -1.064,-0.919 -1.684,-1.187 -0.619,-0.268 -1.28,-0.402 -1.982,-0.402 -1.642,0 -3.006,0.547 -4.092,1.644 -1.087,1.096 -1.629,2.468 -1.629,4.117 0,0.769 0.135,1.497 0.407,2.186 0.272,0.688 0.659,1.294 1.162,1.817 0.55,0.577 1.151,1.002 1.803,1.277 0.652,0.275 1.396,0.412 2.23,0.412 0.749,0 1.437,-0.132 2.066,-0.397 0.63,-0.265 1.202,-0.666 1.719,-1.202 v 1.321 h 1.987 V -5.533 Z m -18.254,0 h -1.967 V 8.93 h 1.967 V 4.152 c 0.318,0.471 0.73,0.825 1.237,1.063 0.506,0.239 1.097,0.358 1.773,0.358 1.324,0 2.354,-0.424 3.089,-1.272 0.735,-0.848 1.103,-2.036 1.103,-3.566 v -6.268 h -1.967 v 5.632 c 0,1.212 -0.205,2.113 -0.616,2.702 -0.411,0.59 -1.039,0.884 -1.887,0.884 -0.517,0 -0.974,-0.119 -1.371,-0.357 -0.397,-0.239 -0.715,-0.583 -0.954,-1.033 -0.145,-0.272 -0.25,-0.603 -0.313,-0.994 -0.063,-0.391 -0.094,-1.013 -0.094,-1.867 z M -48.516,8.93 h 2.136 l -4.371,-14.463 h -1.897 l -2.603,10.798 -2.623,-10.798 h -1.867 L -64.122,8.93 h 2.136 l 3.139,-11.145 2.821,11.145 h 1.57 l 2.811,-11.145 z"
             style="fill:#4f4f4f;fill-opacity:1;fill-rule:nonzero;stroke:none"
             id="path22" /></g><path
           d="m 18,22.016 h 2.169 v -4.49 H 18 Z"
           style="fill:#f25022;fill-opacity:1;fill-rule:nonzero;stroke:none"
           id="path24" /><path
           d="m 21.977,26.938 h 2.169 v -9.412 h -2.169 z"
           style="fill:#ffb902;fill-opacity:1;fill-rule:nonzero;stroke:none"
           id="path26" /><path
           d="m 25.954,32 h 2.169 V 17.538 h -2.169 z"
           style="fill:#80ba01;fill-opacity:1;fill-rule:nonzero;stroke:none"
           id="path28" /><g
           id="g30"
           transform="translate(32.1005,32)"><path
             d="M 0,0 H 3.254 V -2.169 H 0 V -14.462 H -2.169 V 0 Z"
             style="fill:#19a0e5;fill-opacity:1;fill-rule:nonzero;stroke:none"
             id="path32" /></g></g></g></g></svg>
