<?xml version="1.0" encoding="utf-8"?>
<!-- Generator: Adobe Illustrator 27.0.1, SVG Export Plug-In . SVG Version: 6.00 Build 0)  -->
<svg version="1.1" xmlns="http://www.w3.org/2000/svg" xmlns:xlink="http://www.w3.org/1999/xlink" x="0px" y="0px"
	 viewBox="0 0 95.11 18" style="enable-background:new 0 0 95.11 18;" xml:space="preserve">
<style type="text/css">
	.st0{fill:#FFFFFF;}
	.st1{fill:#4F4F4F;}
	.st2{fill:#F25022;}
	.st3{fill:#FFB902;}
	.st4{fill:#80BA01;}
	.st5{fill:#19A0E5;}
</style>
<g id="background">
	<rect x="-18" y="-14" class="st0" width="131.11" height="46"/>
</g>
<g id="Logo">
	<g>
		<path class="st1" d="M37.12,0h2.14l-4.37,14.46h-1.9l-2.6-10.8l-2.62,10.8h-1.87L21.51,0h2.14l3.14,11.15L29.61,0h1.57l2.81,11.15
			L37.12,0z M42.12,14.46h-1.97V0h1.97v4.78c0.32-0.47,0.73-0.82,1.24-1.06c0.51-0.24,1.1-0.36,1.77-0.36
			c1.32,0,2.35,0.42,3.09,1.27c0.74,0.85,1.1,2.04,1.1,3.57v6.27h-1.97V8.83c0-1.21-0.21-2.11-0.62-2.7
			c-0.41-0.59-1.04-0.88-1.89-0.88c-0.52,0-0.97,0.12-1.37,0.36c-0.4,0.24-0.72,0.58-0.95,1.03c-0.15,0.27-0.25,0.6-0.31,0.99
			c-0.06,0.39-0.09,1.01-0.09,1.87V14.46z M60.37,14.46v-1.34c-0.5,0.52-1.06,0.92-1.68,1.19c-0.62,0.27-1.28,0.4-1.98,0.4
			c-1.64,0-3.01-0.55-4.09-1.64c-1.09-1.1-1.63-2.47-1.63-4.12c0-0.77,0.14-1.5,0.41-2.19s0.66-1.29,1.16-1.82
			c0.55-0.58,1.15-1,1.8-1.28c0.65-0.27,1.4-0.41,2.23-0.41c0.75,0,1.44,0.13,2.07,0.4c0.63,0.26,1.2,0.67,1.72,1.2V3.54h1.99v10.93
			H60.37z M53.02,8.93c0,1.11,0.37,2.03,1.1,2.78c0.73,0.75,1.63,1.12,2.69,1.12c0.97,0,1.82-0.38,2.56-1.13
			c0.74-0.75,1.11-1.63,1.11-2.64c0-1.07-0.37-1.99-1.1-2.76s-1.6-1.15-2.61-1.15c-1.03,0-1.92,0.36-2.65,1.09
			C53.38,6.99,53.02,7.88,53.02,8.93z M67.74,14.46h-2.1V1.95h-3.72V0h9.53v1.95h-3.72V14.46z M79.49,14.46v-1.34
			c-0.5,0.52-1.06,0.92-1.68,1.19c-0.62,0.27-1.28,0.4-1.98,0.4c-1.64,0-3.01-0.55-4.09-1.64c-1.09-1.1-1.63-2.47-1.63-4.12
			c0-0.77,0.14-1.5,0.41-2.19c0.27-0.69,0.66-1.29,1.16-1.82c0.55-0.58,1.15-1,1.8-1.28c0.65-0.27,1.4-0.41,2.23-0.41
			c0.75,0,1.44,0.13,2.07,0.4c0.63,0.26,1.2,0.67,1.72,1.2V3.54h1.99v10.93H79.49z M72.14,8.93c0,1.11,0.37,2.03,1.1,2.78
			c0.73,0.75,1.63,1.12,2.69,1.12c0.97,0,1.82-0.38,2.56-1.13c0.74-0.75,1.11-1.63,1.11-2.64c0-1.07-0.37-1.99-1.1-2.76
			s-1.6-1.15-2.61-1.15c-1.03,0-1.92,0.36-2.65,1.09C72.51,6.99,72.14,7.88,72.14,8.93z M85.69,13.14V18h-1.97V3.54h1.99v1.34
			c0.5-0.52,1.06-0.91,1.68-1.18c0.62-0.27,1.28-0.4,1.98-0.4c1.65,0,3.02,0.55,4.1,1.64c1.09,1.09,1.63,2.46,1.63,4.11
			c0,0.76-0.14,1.49-0.41,2.18c-0.27,0.69-0.66,1.3-1.17,1.84c-0.55,0.58-1.15,1-1.8,1.28s-1.4,0.41-2.23,0.41
			c-0.74,0-1.43-0.13-2.06-0.4C86.8,14.08,86.22,13.68,85.69,13.14z M85.63,8.93c0,1.08,0.36,2,1.09,2.76
			c0.73,0.76,1.59,1.14,2.6,1.14c1.03,0,1.91-0.37,2.64-1.1c0.74-0.73,1.1-1.62,1.1-2.67c0-1.11-0.36-2.03-1.09-2.78
			c-0.73-0.75-1.62-1.12-2.67-1.12c-0.97,0-1.82,0.38-2.56,1.13C86,7.04,85.63,7.92,85.63,8.93z"/>
		<rect y="9.98" class="st2" width="2.17" height="4.49"/>
		<rect x="3.98" y="5.06" class="st3" width="2.17" height="9.41"/>
		<rect x="7.95" class="st4" width="2.17" height="14.46"/>
		<path class="st5" d="M14.1,0h3.25v2.17H14.1v12.29h-2.17V0H14.1z"/>
	</g>
</g>
</svg>
