<?xml version="1.0" encoding="utf-8"?>
<!-- Generator: Adobe Illustrator 27.0.1, SVG Export Plug-In . SVG Version: 6.00 Build 0)  -->
<svg version="1.1" id="레이어_1" xmlns="http://www.w3.org/2000/svg" xmlns:xlink="http://www.w3.org/1999/xlink" x="0px"
	 y="0px" viewBox="0 0 500 100" style="enable-background:new 0 0 500 100;" xml:space="preserve">
<style type="text/css">
	.st0{clip-path:url(#SVGID_00000078019007762081405760000004492682180011188921_);fill:#0E05C6;}
</style>
<g>
	<defs>
		<rect id="SVGID_1_" y="-202.5" width="500" height="500"/>
	</defs>
	<clipPath id="SVGID_00000034801518795614338350000003240667111458387601_">
		<use xlink:href="#SVGID_1_"  style="overflow:visible;"/>
	</clipPath>
	<path style="clip-path:url(#SVGID_00000034801518795614338350000003240667111458387601_);fill:#0E05C6;" d="M95.4,47.48
		c0,17.79-11.62,30.44-28.65,30.44c-16.66,0-28.97-11.98-28.97-28.52s12.08-28.61,28.83-28.61c14.25,0,25.91,8.92,28.21,21.56h-15.7
		c-1.97-4.58-6.83-7.53-12.38-7.53c-8.15,0-13.64,5.89-13.64,14.58c0,8.6,5.4,14.49,13.64,14.49c5.72,0,10.62-2.77,12.33-6.96H65.58
		v-9.45L95.4,47.48z"/>
	<path style="clip-path:url(#SVGID_00000034801518795614338350000003240667111458387601_);fill:#0E05C6;" d="M132.44,34.39v13.22
		h-5.61c-5.12,0-7.26,2.24-7.26,7.6v21.33h-14.45V34.6h9.68l2.25,4.65c2.96-3.42,6.56-4.85,11.56-4.85H132.44z"/>
	<path style="clip-path:url(#SVGID_00000034801518795614338350000003240667111458387601_);fill:#0E05C6;" d="M137.87,55.57
		c0-13.01,9.84-22.35,23.52-22.35c13.63,0,23.52,9.35,23.52,22.35c0,12.96-9.89,22.35-23.52,22.35
		C147.71,77.92,137.87,68.53,137.87,55.57 M170.43,55.57c0-5.51-3.78-9.37-9.05-9.37s-9.05,3.82-9.05,9.37
		c0,5.54,3.78,9.37,9.05,9.37S170.43,61.12,170.43,55.57"/>
	<polygon style="clip-path:url(#SVGID_00000034801518795614338350000003240667111458387601_);fill:#0E05C6;" points="241.52,76.54 
		240.83,45.23 226.41,76.63 221.98,76.63 207.57,45.24 206.93,76.54 195.31,76.54 196.43,22.16 211.39,22.16 224.19,51.75 
		237.08,22.16 252.04,22.16 253.08,76.54 	"/>
	<path style="clip-path:url(#SVGID_00000034801518795614338350000003240667111458387601_);fill:#0E05C6;" d="M309.1,55.17
		c0,1.26-0.11,2.53-0.3,3.82h-31.15c0.95,4.81,4,7.3,8.56,7.3c3.38,0,6.2-1.48,7.58-3.93h14.38c-2.95,9.57-11.44,15.56-21.96,15.56
		c-13.09,0-22.79-9.57-22.79-22.38c0-12.86,9.62-22.32,22.79-22.32C299.74,33.22,309.1,42.87,309.1,55.17L309.1,55.17z M277.91,51
		h16.96c-1.27-4.19-4.29-6.45-8.65-6.45C282.01,44.54,279.08,46.83,277.91,51"/>
	<path style="clip-path:url(#SVGID_00000034801518795614338350000003240667111458387601_);fill:#0E05C6;" d="M346.45,63.89v12.65
		h-9.94c-9.28,0-14.92-5.67-14.92-14.99V45.72h-7.68v-3.38l18.8-20.02h2.97v12.27h10.54v11.13h-10.17v13.35c0,3,1.81,4.82,4.86,4.82
		H346.45z"/>
	<path style="clip-path:url(#SVGID_00000034801518795614338350000003240667111458387601_);fill:#0E05C6;" d="M383.61,34.39v13.22
		H378c-5.12,0-7.26,2.24-7.26,7.6v21.33h-14.45V34.6h9.68l2.25,4.65c2.96-3.42,6.56-4.85,11.56-4.85H383.61z"/>
	<path style="clip-path:url(#SVGID_00000034801518795614338350000003240667111458387601_);fill:#0E05C6;" d="M392.18,34.59h14.45
		v41.95h-14.45V34.59z M392.29,17.08h14.23v12.26h-14.23V17.08z"/>
	<path style="clip-path:url(#SVGID_00000034801518795614338350000003240667111458387601_);fill:#0E05C6;" d="M439.58,77.92
		c-13.45,0-23.16-9.43-23.16-22.41c0-12.98,9.67-22.23,23.21-22.23c11.79,0,20.63,7.43,22.21,18.59h-14.07
		c-1.22-3.42-4.42-5.64-8.18-5.64c-5.08,0-8.69,3.86-8.69,9.33c0,5.46,3.66,9.41,8.69,9.41c3.88,0,7.02-2.37,8.21-6.12h14.2
		C460.35,70.24,451.39,77.92,439.58,77.92L439.58,77.92z"/>
</g>
</svg>
