<?xml version="1.0" encoding="UTF-8" standalone="no"?>
<!DOCTYPE svg PUBLIC "-//W3C//DTD SVG 1.1//EN" "http://www.w3.org/Graphics/SVG/1.1/DTD/svg11.dtd">
<svg xmlns="http://www.w3.org/2000/svg" xmlns:xlink="http://www.w3.org/1999/xlink" version="1.1" width="500pt" height="500pt" viewBox="0 0 500 500">
<g enable-background="new">
<clipPath id="cp0">
<path transform="matrix(1,0,0,-1,0,500)" d="M 0 0 L 500 0 L 500 500 L 0 500 Z "/>
</clipPath>
<g clip-path="url(#cp0)">
<path transform="matrix(1,0,0,-1,0,500)" d="M 95.4014 250.019 C 95.4014 232.225 83.7844 219.583 66.7554 219.583 C 50.0934 219.583 37.7864 231.558 37.7864 248.102 C 37.7864 264.646 49.8694 276.711 66.6214 276.711 C 80.8744 276.711 92.5344 267.792 94.8344 255.154 L 79.1354 255.154 C 77.1684 259.735 72.3024 262.68 66.7564 262.68 C 58.6114 262.68 53.1214 256.791 53.1214 248.102 C 53.1214 239.502 58.5214 233.612 66.7564 233.612 C 72.4744 233.612 77.3764 236.38 79.0864 240.573 L 65.5814 240.573 L 65.5814 250.018 Z " fill="#0e05c6"/>
<path transform="matrix(1,0,0,-1,0,500)" d="M 132.439 263.105 L 132.439 249.884 L 126.831 249.884 C 121.715 249.884 119.572 247.64 119.572 242.288 L 119.572 220.957 L 105.123 220.957 L 105.123 262.905 L 114.803 262.905 L 117.057 258.251 C 120.016 261.672 123.619 263.105 128.612 263.105 Z " fill="#0e05c6"/>
<path transform="matrix(1,0,0,-1,0,500)" d="M 170.4321 241.9297 C 170.4321 247.4447 166.6531 251.2987 161.3851 251.2987 C 156.1171 251.2987 152.3381 247.4767 152.3381 241.9307 C 152.3381 236.3857 156.1171 232.5617 161.3851 232.5617 C 166.6531 232.5617 170.4321 236.3837 170.4321 241.9297 M 137.8651 241.9307 C 137.8651 254.9357 147.7081 264.2807 161.3851 264.2807 C 175.0171 264.2807 184.9051 254.9357 184.9051 241.9307 C 184.9051 228.9717 175.0171 219.5807 161.3851 219.5807 C 147.7081 219.5807 137.8651 228.9717 137.8651 241.9307 " fill="#0e05c6"/>
<path transform="matrix(1,0,0,-1,0,500)" d="M 241.5215 220.957 L 240.8295 252.273 L 226.4065 220.866 L 221.9805 220.866 L 207.5665 252.261 L 206.9345 220.957 L 195.3055 220.957 L 196.4265 275.336 L 211.3875 275.336 L 224.1925 245.746 L 237.0825 275.336 L 252.0415 275.336 L 253.0845 220.957 Z " fill="#0e05c6"/>
<path transform="matrix(1,0,0,-1,0,500)" d="M 277.9121 246.5039 L 294.8701 246.5039 C 293.6021 250.6969 290.5801 252.9589 286.2211 252.9589 C 282.0091 252.9589 279.0811 250.6709 277.9121 246.5039 M 309.1041 242.3279 C 309.1041 241.0649 308.9931 239.7999 308.8061 238.5029 L 277.6571 238.5029 C 278.6021 233.6909 281.6581 231.2019 286.2211 231.2019 C 289.5971 231.2019 292.4171 232.6819 293.8061 235.1369 L 308.1831 235.1369 C 305.2311 225.5629 296.7451 219.5809 286.2211 219.5809 C 273.1311 219.5809 263.4351 229.1479 263.4351 241.9639 C 263.4351 254.8239 273.0551 264.2809 286.2211 264.2809 C 299.7411 264.2809 309.1041 254.6339 309.1041 242.3299 Z " fill="#0e05c6"/>
<path transform="matrix(1,0,0,-1,0,500)" d="M 346.4473 233.6123 L 346.4473 220.9573 L 336.5073 220.9573 C 327.2293 220.9573 321.5923 226.6273 321.5923 235.9503 L 321.5923 251.7793 L 313.9133 251.7793 L 313.9133 255.1553 L 332.7083 275.1713 L 335.6763 275.1713 L 335.6763 262.9053 L 346.2153 262.9053 L 346.2153 251.7793 L 336.0413 251.7793 L 336.0413 238.4273 C 336.0413 235.4243 337.8523 233.6123 340.9013 233.6123 Z " fill="#0e05c6"/>
<path transform="matrix(1,0,0,-1,0,500)" d="M 383.6094 263.105 L 383.6094 249.884 L 378.0024 249.884 C 372.8854 249.884 370.7424 247.64 370.7424 242.288 L 370.7424 220.957 L 356.2944 220.957 L 356.2944 262.905 L 365.9734 262.905 L 368.2274 258.251 C 371.1864 261.672 374.7904 263.105 379.7824 263.105 Z " fill="#0e05c6"/>
<path transform="matrix(1,0,0,-1,0,500)" d="M 392.291 280.418 L 406.52 280.418 L 406.52 268.156 L 392.291 268.156 Z M 392.182 262.907 L 406.63 262.907 L 406.63 220.957 L 392.182 220.957 Z " fill="#0e05c6"/>
<path transform="matrix(1,0,0,-1,0,500)" d="M 439.5771 219.583 C 426.1261 219.583 416.4141 229.008 416.4141 241.988 C 416.4141 254.968 426.0801 264.216 439.6221 264.216 C 451.4111 264.216 460.2531 256.784 461.8331 245.625 L 447.7591 245.625 C 446.5431 249.048 443.3441 251.268 439.5771 251.268 C 434.5001 251.268 430.8861 247.409 430.8861 241.943 C 430.8861 236.478 434.5451 232.53 439.5771 232.53 C 443.4551 232.53 446.5971 234.904 447.7901 238.65 L 461.9871 238.65 C 460.3531 227.259 451.3901 219.581 439.5771 219.581 Z " fill="#0e05c6"/>
</g>
</g>
</svg>
