<?xml version="1.0" encoding="UTF-8" standalone="no"?>
<svg
   version="1.1"
   width="640"
   height="640"
   viewBox="0 0 640 640"
   xml:space="preserve"
   id="svg63"
   sodipodi:docname="uca22logo_orange.svg"
   inkscape:version="1.2 (dc2aedaf03, 2022-05-15)"
   inkscape:export-filename="Untitled (2).png"
   inkscape:export-xdpi="96"
   inkscape:export-ydpi="96"
   xmlns:inkscape="http://www.inkscape.org/namespaces/inkscape"
   xmlns:sodipodi="http://sodipodi.sourceforge.net/DTD/sodipodi-0.dtd"
   xmlns="http://www.w3.org/2000/svg"
   xmlns:svg="http://www.w3.org/2000/svg"><sodipodi:namedview
   id="namedview65"
   pagecolor="#ffffff"
   bordercolor="#000000"
   borderopacity="0.25"
   inkscape:showpageshadow="2"
   inkscape:pageopacity="0.0"
   inkscape:pagecheckerboard="0"
   inkscape:deskcolor="#d1d1d1"
   showgrid="false"
   inkscape:zoom="1.0429825"
   inkscape:cx="334.13792"
   inkscape:cy="396.93859"
   inkscape:window-width="2880"
   inkscape:window-height="1514"
   inkscape:window-x="3373"
   inkscape:window-y="-11"
   inkscape:window-maximized="1"
   inkscape:current-layer="svg63" />
<desc
   id="desc2">Created with Fabric.js 4.6.0</desc>
<defs
   id="defs4"><inkscape:path-effect
   effect="envelope"
   id="path-effect1977"
   is_visible="true"
   lpeversion="1"
   yy="true"
   xx="true"
   bendpath1="M -39.83,-22.626001 H 41.766"
   bendpath2="m 41.766,-22.626001 v 39.096"
   bendpath3="M -39.83,16.469999 H 41.766"
   bendpath4="m -39.83,-22.626001 v 39.096" /><inkscape:path-effect
   effect="envelope"
   id="path-effect1975"
   is_visible="true"
   lpeversion="1"
   yy="true"
   xx="true"
   bendpath1="m -37.615928,-32.839938 c 25.625697,10.393716 54.443365,10.482272 79.134147,9.257637"
   bendpath2="M 41.76921,-18.840991 41.768787,19.72371"
   bendpath3="M -40.331061,8.0734297 C -6.3265819,18.539458 -3.1875804,17.492045 41.768438,19.344505"
   bendpath4="M -39.09639,-31.235216 -39.83,16.469999"
   bendpath1-nodetypes="cc"
   bendpath3-nodetypes="cc"
   bendpath4-nodetypes="cc"
   bendpath2-nodetypes="cc" /><inkscape:path-effect
   effect="envelope"
   id="path-effect1928"
   is_visible="true"
   lpeversion="1"
   yy="true"
   xx="true"
   bendpath1="M -383.71,-369.16 H 383.69826"
   bendpath2="m 396.87757,-371.04276 c -9.41379,246.73224 13.261,370.86052323 -41.42069,742.07948"
   bendpath3="M -383.71,369.15396 H 383.69826"
   bendpath4="m -364.88241,-372.92552 c -1.87639,247.45085 21.24098,508.0575 -43.30345,742.07948"
   bendpath4-nodetypes="cc"
   bendpath2-nodetypes="cc" /><inkscape:path-effect
   effect="envelope"
   id="path-effect1839"
   is_visible="true"
   lpeversion="1"
   yy="true"
   xx="true"
   bendpath1="M -383.71,-369.16 H 383.69826"
   bendpath2="M 442.19282,-335.03045 C 431.22839,-64.745091 402.61808,309.51319 378.82985,372.05173"
   bendpath3="M -383.71,369.15396 H 383.69826"
   bendpath4="M -373.05951,-369.16 C -402.1714,-144.53328 -436.76566,69.60006 -490.2149,334.53987"
   bendpath4-nodetypes="cc"
   bendpath2-nodetypes="cc" />
</defs>










<g
   id="g866"
   transform="matrix(1.0478029,0,0,1.0478029,-15.296931,-15.296933)"><g
     transform="matrix(1.6974895,0,0,1.6974895,64.676136,468.65422)"
     id="wzwM9lu-tUWYqXj6PmQar">
<path
   style="opacity:1;fill:none;fill-rule:nonzero;stroke:#000000;stroke-width:1;stroke-linecap:round;stroke-linejoin:round;stroke-miterlimit:10;stroke-dasharray:none;stroke-dashoffset:0"
   vector-effect="non-scaling-stroke"
   transform="translate(-156.58,-421.87)"
   d="m 156.57943,421.86727 h 0.002"
   stroke-linecap="round"
   id="path6" />
</g><g
     transform="matrix(2.5122845,0,0,7.1294559,457.86563,365.99005)"
     id="jFqApB8YGkxCjr7TT3yPV">
<path
   style="opacity:1;fill:#e95420;fill-rule:nonzero;stroke:#8b6de6;stroke-width:0;stroke-linecap:butt;stroke-linejoin:miter;stroke-miterlimit:4;stroke-dasharray:none;stroke-dashoffset:0"
   vector-effect="non-scaling-stroke"
   d="m -38.01358,-0.17998 c -1.33767,-17.99775 0,-35.81552 0,-35.81552 0,0 17.99775,2.12273 35.9955,3.51756 17.99775,1.39483 35.9955,2.06174 35.9955,2.06174 0,0 -1.15767,12.05849 0,26.99663 1.15767,14.93813 4.63068,32.75591 4.63068,32.75591 0,0 -12.83988,2.19047 -30.65763,3.85526 -17.81775,1.66479 -40.61337,2.8039 -40.61337,2.8039 0,0 -4.01301,-18.17773 -5.35068,-36.17548 z"
   stroke-linecap="round"
   id="path9" />
</g><g
     transform="matrix(1.8188931,0.00159312,-0.00154253,1.8785486,450.1551,232.04878)"
     id="eg2D4PgkELE7O0RpDyjyY"
     class="UnoptimicedTransforms"
     inkscape:path-effect="#path-effect1975">
		<g
   aria-label="&quot;22"
   id="text18"
   style="font-weight:700;font-size:54px;line-height:1;font-family:Ubuntu;letter-spacing:0.108;white-space:pre;opacity:1;fill:#ffffff"
   inkscape:path-effect="#path-effect1977"
   class="UnoptimicedTransforms"><path
     d="m -31.125822,-21.824997 c -0.16138,1.27356 -0.41562,3.3616 -0.775514,6.823638 -0.247403,2.379913 -0.666288,6.6537845 -0.686192,6.8550091 -1.70684,-0.1238543 -3.412844,-0.205795 -5.105931,-0.2269024 0.282498,4.7829306 0.366646,6.2788693 0.446702,7.70780517 0.05739,1.02436457 0.04385,0.7794533 -0.01828,-0.32565625 -0.124254,-2.21021912 -0.500001,-8.16406552 -0.839583,-14.58486562 -0.400961,-7.581342 -0.438868,-11.841975 -0.274943,-15.346899 0.05708,-1.220398 0.07663,-1.493462 0.01776,-0.359987 -0.05754,1.107846 -0.176524,3.717787 -0.05355,8.319823 2.424625,0.303297 4.875562,0.703941 7.289529,1.138035 z m 10.982641,2.108645 c -0.528655,4.444777 -0.925663,8.209114 -1.415414,12.7894747 -1.708483,-0.2308077 -3.433873,-0.4541828 -5.14347,-0.6524098 0.116027,2.0075706 -0.145539,-2.3414834 -0.375277,-6.7667959 -0.229737,-4.425313 -0.38341,-8.795113 -0.3084,-6.780219 0,0 7.242561,1.40995 7.242561,1.40995 z"
     id="path225"
     inkscape:original-d="m -32.486,-22.086001 -1.08,13.9320003 h -5.184 l -1.08,-13.9320003 z m 11.124,0 -1.08,13.9320003 h -5.184 l -1.08,-13.9320003 z" /><path
     d="M 10.681615,18.212795 C 7.4689156,18.010001 4.3125078,17.765305 1.1183523,17.452978 -0.38900892,17.30558 -1.8860799,17.14496 -3.3872604,16.969047 -7.8111791,16.450601 -11.963519,15.751091 -16.284738,14.978646 c 0.184801,-1.396399 0.332086,-2.869998 0.452736,-4.39477 3.341137,-2.1486374 6.6933595,-4.6425552 9.9093256,-7.164825 1.2747469,-1.0280381 2.4069791,-1.9816689 3.3449839,-2.79940609 0.5051905,-0.43137242 0.966167,-0.83346636 1.3800503,-1.20284463 1.20409081,-1.10611768 2.08285382,-2.12076538 2.6350173,-3.03387958 0.2269141,-0.3880384 0.4087386,-0.7910874 0.5455144,-1.2090349 0.1966855,-0.601021 0.3001741,-1.2328577 0.3107738,-1.8956314 0.010295,-0.6437111 -0.073854,-1.2192082 -0.2519368,-1.7270869 0,0 0,-10e-8 0,-10e-8 0,0 -1e-7,-2e-7 -1e-7,-2e-7 -0.2038721,-0.5810533 -0.5307744,-1.073426 -0.9802756,-1.4790542 -0.80675272,-0.756437 -1.91930692,-1.211053 -3.3366847,-1.375689 -0.021376,-0.0025 -0.042745,-0.0049 -0.064107,-0.0073 0,0 -2e-7,0 -2e-7,0 -1.4056545,-0.152527 -2.7882167,-0.01933 -4.1440005,0.409535 -1.3761388,0.435304 -2.8335253,1.1145804 -4.3702291,2.048336 0,0 -4.222549,-5.420911 -4.222549,-5.420911 1.078781,-0.680089 2.238921,-1.286255 3.484731,-1.829678 1.246077,-0.575354 2.6588936,-0.959101 4.240309,-1.174198 1.4597155,-0.218137 3.1705981,-0.218271 5.1270923,-0.02682 0.2124213,0.02112 0.4278235,0.04447 0.6461852,0.07003 1.35520188,0.158594 2.6037484,0.414287 3.7455869,0.775087 0.9396293,0.297691 1.8067442,0.666878 2.6024063,1.111765 1.7991961,0.957525 3.1724862,2.166411 4.1215128,3.650949 0.9837948,1.453689 1.4691685,3.0581204 1.4494915,4.8131543 -0.02111,1.8826751 -0.4721306,3.5697197 -1.3565457,5.065119 C 8.1369658,-0.32182024 6.8877812,1.1331381 5.2383362,2.5333975 4.2207508,3.4182474 3.0540346,4.3608553 1.7529671,5.3397065 0.99501541,5.9104217 0.1854292,6.4976818 -0.66985103,7.0936783 -1.3939275,7.6067486 -2.1213212,8.1166132 -2.8486438,8.6192916 -3.8140917,9.299307 -4.7876127,9.967552 -5.7666074,10.616693 c 3.98e-5,-6.67e-4 -0.019473,0.321965 -0.019434,0.321298 0,0 1.1324263,0.134316 2.8058578,0.301865 1.3078419,0.13276 2.80285486,0.275064 4.4787358,0.417685 4.527819,0.388389 9.5127974,0.679354 9.5127974,0.679354 -0.08367,1.969288 -0.189901,3.937735 -0.329735,5.8759 z"
     id="path227"
     inkscape:original-d="m 10.985999,16.469999 h -26.946 v -5.67 l 9.6660002,-9.7739997 q 2.916,-3.024 4.698,-5.022 1.78199996,-2.052 2.59199996,-3.672 0.81000004,-1.674 0.81000004,-3.5640003 0,-2.322 -1.29600004,-3.456 -1.242,-1.134 -3.40199996,-1.134 -2.214,0 -4.32,1.026 -2.106,1.026 -4.4280002,2.916 l -4.428,-5.238 q 1.62,-1.404 3.51,-2.646 1.89,-1.296 4.3200002,-2.052 2.484,-0.81 5.94,-0.81 3.78,0 6.48,1.404 2.754,1.35 4.212,3.726 1.512,2.322 1.512,5.292 0,3.1860003 -1.296,5.8320003 -1.242,2.646 -3.672,5.238 -2.376,2.592 -5.77800004,5.724 l -4.96799996,4.644 v 0.378 H 10.985999 Z" /><path
     d="m 41.807828,19.561846 c -8.99736,-0.378155 -18.127321,-0.641322 -27.238835,-1.124196 0.112213,-1.612569 0.199793,-3.239896 0.270095,-4.86438 0,0 2.532919,-1.987405 5.016455,-3.9673892 2.483317,-1.97981 4.920567,-3.9250029 4.920567,-3.9250029 1.948638,-1.5926742 3.536682,-2.9220556 4.705557,-3.9458307 1.181513,-1.06535541 2.036521,-2.02322425 2.57157,-2.8907851 0.534868,-0.8978278 0.803884,-1.8848542 0.808011,-2.9740536 0.0051,-1.3375274 -0.415739,-2.400271 -1.266315,-3.1624177 -0.815745,-0.7588607 -1.934187,-1.2161697 -3.361065,-1.3547976 -1.462211,-0.1420605 -2.8907,0.035864 -4.287747,0.5251904 -1.396239,0.489043 -2.868871,1.2326585 -4.416848,2.2256478 0,0 -4.373631,-4.9752144 -4.373631,-4.9752144 1.077413,-0.750868 2.243427,-1.451714 3.494631,-2.101898 1.250015,-0.681741 2.680603,-1.197702 4.282416,-1.534399 1.63406,-0.365971 3.602676,-0.465799 5.876943,-0.254515 2.499068,0.232169 4.624216,0.907668 6.408257,2.012671 1.813706,1.072756 3.188818,2.432724 4.13017,4.0037591 0.97618,1.5436452 1.447688,3.1677701 1.434732,4.8495408 -0.01388,1.8014094 -0.43766,3.34443914 -1.273795,4.68465811 -0.801435,1.34511829 -1.987783,2.63596159 -3.573594,3.91026129 -1.540881,1.269707 -3.4649,2.720908 -5.734214,4.3310546 -1.682323,1.2134121 -3.333838,2.4179061 -5.057312,3.6743881 3.1e-5,-0.0011 -0.0092,0.32332 -0.0092,0.322215 0,0 4.238607,0.182394 8.443281,0.396416 4.211045,0.214345 8.355481,0.473663 8.355481,0.473663 -6.3e-5,1.83736 -0.0281,3.741939 -0.125626,5.665414 z"
     id="path229"
     inkscape:original-d="M 41.766,16.469999 H 14.82 v -5.67 l 9.666,-9.7739997 q 2.916,-3.024 4.698,-5.022 1.782,-2.052 2.592,-3.672 0.81,-1.674 0.81,-3.5640003 0,-2.322 -1.296,-3.456 -1.242,-1.134 -3.402,-1.134 -2.214,0 -4.32,1.026 -2.106,1.026 -4.428,2.916 l -4.428,-5.238 q 1.62,-1.404 3.51,-2.646 1.89,-1.296 4.32,-2.052 2.484,-0.81 5.94,-0.81 3.78,0 6.48,1.404 2.754,1.35 4.212,3.726 1.512,2.322 1.512,5.292 0,3.1860003 -1.296,5.8320003 -1.242,2.646 -3.672,5.238 -2.376,2.592 -5.778,5.724 l -4.968,4.644 v 0.378 h 16.794 z" /></g>
</g><g
     transform="matrix(3.1573305,0,0,7.1294559,222.61056,365.99005)"
     id="AvhcF3OvwC5frrcJhWN5R">
<path
   style="opacity:1;fill:#e95420;fill-rule:nonzero;stroke:#fc861d;stroke-width:0;stroke-linecap:butt;stroke-linejoin:miter;stroke-miterlimit:4;stroke-dasharray:none;stroke-dashoffset:0"
   vector-effect="non-scaling-stroke"
   d="m -30.89452,-5.21935 c 1.83756,-15.2081 0,-25.55681 0,-25.55681 0,0 17.028,-0.39695 35.02575,-1.70179 17.99775,-1.30484 36.96525,-3.51756 36.96525,-3.51756 0,0 1.64413,16.37795 0,34.3757 -1.64413,17.99775 -9.56281,37.6153 -9.56281,37.6153 0,0 -22.30619,-0.99802 -40.49737,-2.48283 -18.19118,-1.48481 -32.86351,-3.45642 -32.86351,-3.45642 0,0 9.09512,-20.06749 10.93268,-35.27559 z"
   stroke-linecap="round"
   id="path21" />
</g><g
     transform="matrix(0.25462343,0,0,0.25462343,224.35809,490.90066)"
     id="wigrQ9OaXCd0KOQazBk62-6-2">
<g
   vector-effect="non-scaling-stroke"
   id="g42-5-7"
   transform="translate(-16.944827,11.296551)"
   inkscape:path-effect="#path-effect1928"
   class="UnoptimicedTransforms">
		<g
   transform="translate(-274.68,-21.06)"
   id="dhCG0WREhORJ3XiUNEBRJ-2-8">
<path
   style="opacity:1;fill:#ffffff;fill-rule:nonzero;stroke:none;stroke-width:1;stroke-linecap:butt;stroke-linejoin:miter;stroke-miterlimit:4;stroke-dasharray:none;stroke-dashoffset:0"
   vector-effect="non-scaling-stroke"
   transform="translate(-109.03,-109.03)"
   d="m 21.391777,109.16073 c 0.08693,-9.262141 1.166026,-18.28226 3.131829,-26.899674 0,0 2e-6,-8e-6 2e-6,-8e-6 10.957807,-48.035204 49.473612,-83.5035357 98.412552,-83.553861 48.65388,-0.050032 91.274,35.25944 102.82051,82.490639 0,0 0,9e-6 0,9e-6 2.0786,8.484773 3.15476,17.378664 3.09005,26.561185 -0.0577,8.19515 -1.02125,16.19402 -2.79362,23.90436 0,0 0,1e-5 0,1e-5 -11.26892,49.0513 -55.38303,86.20453 -105.31273,86.50408 -24.945378,0.14966 -47.086456,-8.9042 -64.01057,-24.04584 -16.921424,-15.13923 -28.713064,-36.42197 -33.265957,-60.93351 0,0 -1e-6,-1e-5 -1e-6,-1e-5 -1.43309,-7.71569 -2.149654,-15.76086 -2.072065,-24.02738 z"
   stroke-linecap="round"
   id="path24-0-3"
   inkscape:original-d="M 0,109.02696 C 0,48.81303 48.81303,0 109.02696,0 c 60.21393,0 109.02696,48.81303 109.02696,109.02696 0,60.21393 -48.81303,109.02696 -109.02696,109.02696 C 48.81303,218.05392 0,169.24089 0,109.02696 Z" />
</g>
		<g
   transform="translate(179.38,-260.13)"
   id="XRDDQ1J1uEX4yQfzG9-K--4-4">
<path
   style="opacity:1;fill:#ffffff;fill-rule:nonzero;stroke:none;stroke-width:1;stroke-linecap:butt;stroke-linejoin:miter;stroke-miterlimit:4;stroke-dasharray:none;stroke-dashoffset:0"
   vector-effect="non-scaling-stroke"
   transform="translate(-109.03,-109.03)"
   d="M 4.208717,107.85885 C 3.403207,77.863575 14.817942,50.928839 34.061343,31.426833 53.279596,11.950314 80.428234,-0.2009352 111.04678,-0.40053678 c 30.64794,-0.19979318 58.8883,11.62634978 79.53305,31.18548978 20.649,19.563162 33.59831,46.760164 34.16006,76.977727 0.39077,21.02025 -5.26872,40.70197 -15.36209,57.41235 C 190.46645,196.3923 155.9356,217.1071 116.33167,217.0639 76.722918,217.02069 41.847501,196.22904 21.861739,165.055 11.188535,148.35945 4.7694751,128.74015 4.208717,107.85885 Z"
   stroke-linecap="round"
   id="path27-0-5"
   inkscape:original-d="M 0,109.02698 C 0,48.81304 48.81304,0 109.02698,0 c 60.21394,0 109.02698,48.81304 109.02698,109.02698 0,60.21394 -48.81304,109.02698 -109.02698,109.02698 C 48.81304,218.05396 0,169.24092 0,109.02698 Z" />
</g>
		<g
   transform="translate(-136.59,238.23)"
   id="MYNmCgeXEu-Z4ZFYs7EEV-0-0">
<path
   style="opacity:1;fill:#ffffff;fill-rule:nonzero;stroke:none;stroke-width:1;stroke-linecap:butt;stroke-linejoin:miter;stroke-miterlimit:4;stroke-dasharray:none;stroke-dashoffset:0"
   vector-effect="non-scaling-stroke"
   transform="translate(-384.67,-1315.37)"
   d="m 490.85455,1339.6444 c -50.80306,-10.8637 -95.18664,-36.1823 -128.65387,-73.1843 -15.40551,-17.0313 -28.33693,-36.3575 -38.65586,-57.6148 0,0 0,0 0,0 -1.57266,-3.2333 -3.08375,-6.5106 -4.53282,-9.8305 -9.04352,4.2174 -18.35295,7.5269 -27.78572,9.9121 0,0 -10e-6,0 -10e-6,0 -20.92908,5.3025 -42.41566,6.035 -62.96605,2.0768 6.01135,19.407 13.48854,37.9809 22.50531,55.5342 0,0 10e-6,0 10e-6,0 21.4534,41.7572 51.09477,76.9925 89.44097,104.3724 38.21511,27.2862 83.47943,45.5484 132.2581,54.9785 25.83021,5.0559 52.1895,7.5474 77.95554,7.5102 -21.71333,-25.1416 -33.08405,-55.9719 -33.02135,-89.4032 -8.91995,-1.0033 -17.8271,-2.4646 -26.54425,-4.3514 z"
   stroke-linecap="round"
   id="path30-9-5"
   inkscape:original-d="m 492.48194,1336.6658 c -78.03509,-16.5005 -144.51913,-67.2061 -181.0712,-138.0982 -29.17498,13.2452 -61.70493,17.2437 -93.21911,11.4583 44.26207,109.4427 140.04226,189.7156 255.53723,214.1645 25.44179,5.4518 51.40061,8.1232 77.41949,7.967 -20.01544,-26.243 -31.19204,-58.1579 -31.92236,-91.1546 -8.97977,-0.9975 -17.94864,-2.4548 -26.74405,-4.337 z" />
</g>
		<g
   transform="translate(154.82,260.13)"
   id="5kevNsoqeQyggepDS7LVy-3-7">
<path
   style="opacity:1;fill:#ffffff;fill-rule:nonzero;stroke:none;stroke-width:1;stroke-linecap:butt;stroke-linejoin:miter;stroke-miterlimit:4;stroke-dasharray:none;stroke-dashoffset:0"
   vector-effect="non-scaling-stroke"
   transform="translate(-109.03,-109.03)"
   d="M -1.9930407,112.04906 C -1.2999863,83.942544 10.328586,57.827856 28.296623,38.154683 49.129646,15.363071 78.625203,1.0397257 110.70553,1.1077487 c 32.10531,0.068076 60.07879,14.5128753 78.47514,37.3410623 15.95829,19.803345 24.57272,45.701537 23.29555,74.102789 -1.36947,30.45376 -13.84117,58.16112 -32.47399,77.46059 -18.80139,19.47408 -43.94091,30.62301 -73.11793,30.07934 C 77.956637,219.55251 49.943192,207.56693 29.831621,188.4359 9.5081452,169.1033 -2.7450782,142.5476 -1.9930407,112.04906 Z"
   stroke-linecap="round"
   id="path33-6-0"
   inkscape:original-d="M 0,109.02698 C 0,48.81304 48.81304,0 109.02698,0 c 60.21394,0 109.02698,48.81304 109.02698,109.02698 0,60.21394 -48.81304,109.02698 -109.02698,109.02698 C 48.81304,218.05396 0,169.24092 0,109.02698 Z" />
</g>
		<g
   transform="translate(319.03,10.82)"
   id="G5EOonB6_5-VBoMssZfkQ-7-1">
<path
   style="opacity:1;fill:#ffffff;fill-rule:nonzero;stroke:none;stroke-width:1;stroke-linecap:butt;stroke-linejoin:miter;stroke-miterlimit:4;stroke-dasharray:none;stroke-dashoffset:0"
   vector-effect="non-scaling-stroke"
   transform="translate(-840.3,-1087.96)"
   d="m 823.29888,1299.9208 c 8.80797,-10.7342 17.06121,-21.8341 24.7044,-33.1839 12.31856,-18.2837 23.14322,-37.3318 32.2271,-56.7882 19.28405,-41.2794 30.74665,-84.585 33.00377,-128.6856 0.86786,-16.9569 0.37014,-33.9413 -1.52776,-50.8633 -5.96528,-53.19201 -25.74866,-105.58376 -57.67454,-152.41536 -12.31018,29.75662 -33.65321,54.79039 -61.14692,71.83112 13.72271,25.27847 22.92581,52.07534 27.42441,79.35704 2.76348,16.7289 3.74925,33.665 2.98974,50.6178 -1.99658,44.6883 -16.20424,89.1552 -41.08005,129.4559 -1.63324,2.651 -3.31216,5.2837 -5.0361,7.8967 15.47757,13.7834 27.59722,30.6747 35.90131,49.6054 4.61028,10.5076 8.03032,21.6202 10.21464,33.1724 z"
   stroke-linecap="round"
   id="path36-0-9"
   inkscape:original-d="m 827.798,1297.221 c 95.87368,-120.9482 103.08687,-289.8367 17.87483,-418.519 -12.5932,29.65312 -33.9961,54.71918 -61.30975,71.8031 44.37899,83.7826 41.05448,184.8048 -8.73688,265.4884 25.5237,20.8944 43.78513,49.326 52.1718,81.2275 z" />
</g>
		<g
   transform="translate(-114,-256.11)"
   id="fRrgGwENVItaZC02FeXX9-8-9">
<path
   style="opacity:1;fill:#ffffff;fill-rule:nonzero;stroke:none;stroke-width:1;stroke-linecap:butt;stroke-linejoin:miter;stroke-miterlimit:4;stroke-dasharray:none;stroke-dashoffset:0"
   vector-effect="non-scaling-stroke"
   transform="translate(-407.26,-821.03)"
   d="m 251.1003,898.19791 c 2.63675,-0.15317 5.27952,-0.22879 7.92821,-0.22694 27.92386,0.0247 55.82141,8.26561 80.28419,23.72061 11.77145,-18.27671 25.57183,-34.64614 41.12376,-48.91815 44.46489,-40.94512 103.26704,-64.25872 166.7234,-65.3395 0.8378,-31.97262 11.37451,-62.37237 30.2463,-87.31206 -63.94126,-4.74203 -126.09692,7.27388 -179.7836,33.30524 -54.03522,26.20037 -99.57246,66.52917 -132.1149,119.10807 -5.13778,8.2762 -9.94324,16.83304 -14.40736,25.66273 z"
   stroke-linecap="round"
   id="path39-6-5"
   inkscape:original-d="m 238.17644,899.71906 q 4.1505,-0.22779 8.30533,-0.22553 c 29.21211,0.0211 57.84161,8.17395 82.68239,23.54547 48.75913,-70.42835 128.46076,-113.05437 214.10822,-114.50934 1.76238,-32.15429 13.30238,-63.00353 33.076,-88.42022 C 439.24549,709.25177 306.02421,780.001 238.17644,899.71906 Z" />
</g>
</g>
</g><g
     transform="matrix(1.4428661,-0.52622175,0.57714643,1.5956401,243.96498,94.221981)"
     id="aiMSrT1FUmwbhyzP2Cv13">
<path
   style="opacity:1;fill:#e95420;fill-rule:nonzero;stroke:#fc861d;stroke-width:0;stroke-linecap:butt;stroke-linejoin:miter;stroke-miterlimit:4;stroke-dasharray:none;stroke-dashoffset:0"
   vector-effect="non-scaling-stroke"
   d="M -81.61207,-0.06776 C -81.61207,-1.13491 -80.65166,-2 -79.46693,-2 H 79.46692 v 0 c 1.18473,0 2.14514,0.86509 2.14514,1.93224 v 0.13552 0 C 81.61206,1.13491 80.65165,2 79.46692,2 H -79.46693 v 0 c -1.18473,0 -2.14514,-0.86509 -2.14514,-1.93224 z"
   stroke-linecap="round"
   id="path45" />
</g><g
     transform="matrix(1.5616903,0.76387027,-0.74689538,1.5277406,449.85348,95.936446)"
     id="hTD8JXSBhLV4ak72_k9nr">
<path
   style="opacity:1;fill:#e95420;fill-rule:nonzero;stroke:#fc861d;stroke-width:0;stroke-linecap:butt;stroke-linejoin:miter;stroke-miterlimit:4;stroke-dasharray:none;stroke-dashoffset:0"
   vector-effect="non-scaling-stroke"
   d="M -58.9562,-0.07625 C -58.9562,-1.13871 -58.11093,-2 -57.06824,-2 H 57.06825 v 0 c 1.04269,0 1.88796,0.86129 1.88796,1.92375 v 0.1525 0 C 58.95621,1.13871 58.11094,2 57.06825,2 H -57.06824 V 2 C -58.11093,2 -58.9562,1.13871 -58.9562,0.07625 Z"
   stroke-linecap="round"
   id="path48" />
</g><g
     transform="matrix(-0.23764853,2.6650585,-1.6974895,-0.15277406,358.07022,78.944576)"
     id="NCDpIfqJ3E2nyzD1doe8y">
<path
   style="opacity:1;fill:#e95420;fill-rule:nonzero;stroke:#fc861d;stroke-width:0;stroke-linecap:butt;stroke-linejoin:miter;stroke-miterlimit:4;stroke-dasharray:none;stroke-dashoffset:0"
   vector-effect="non-scaling-stroke"
   d="M -9.05978,-0.01292 C -9.05978,-1.11035 -8.49585,-2 -7.80022,-2 H 7.8002 v 0 c 0.69564,0 1.25956,0.88965 1.25956,1.98708 v 0.02584 0 C 9.05976,1.11035 8.49583,2 7.8002,2 H -7.80022 V 2 C -8.49586,2 -9.05978,1.11035 -9.05978,0.01292 Z"
   stroke-linecap="round"
   id="path51" />
</g><g
     transform="matrix(1.6805146,-0.15277406,0.3564728,4.1248995,439.12534,40.038117)"
     id="vwZA0beqfYYXqeeBplnSD">
<path
   style="opacity:1;fill:#e95420;fill-rule:nonzero;stroke:#fc861d;stroke-width:0;stroke-linecap:butt;stroke-linejoin:miter;stroke-miterlimit:4;stroke-dasharray:none;stroke-dashoffset:0"
   vector-effect="non-scaling-stroke"
   d="m -81.61207,-1.06256 c 2.3e-4,-0.43262 0.44504,-0.84541 1.22637,-1.1381 0.78133,-0.2927 1.82771,-0.43852 2.88498,-0.40205 25.71835,0.88709 39.32762,1.81066 78.0866,1.81066 38.72882,0 51.58673,-0.90517 76.91437,-1.80582 v 0 c 1.05684,-0.03758 2.10383,0.10749 2.88568,0.39984 0.78185,0.29235 1.22672,0.70512 1.22613,1.13766 v 0.69985 0 c 0,0.8877 -1.67481,1.62602 -3.84537,1.69519 -25.65287,0.81747 -39.02655,1.27354 -77.91043,1.27354 -38.87765,0 -52.0664,-0.45319 -77.62414,-1.2728 v 0 c -2.17018,-0.0696 -3.84419,-0.80793 -3.84419,-1.69551 z"
   stroke-linecap="round"
   id="path54" />
</g><g
     transform="matrix(2.2406861,0,0,0.13830553,452.75619,299.02029)"
     id="jyEldl7UYCCKqWNNkz1ki">
<path
   style="opacity:1;fill:#ffffff;fill-rule:nonzero;stroke:#fc861d;stroke-width:0;stroke-linecap:butt;stroke-linejoin:miter;stroke-miterlimit:4;stroke-dasharray:none;stroke-dashoffset:0"
   vector-effect="non-scaling-stroke"
   d="m -35.76389,-103.18037 c 0,0 16.56259,82.10239 34.44454,115.72155 17.88195,33.61916 37.08324,18.7551 37.08324,18.7551 v 71.52778 c 0,0 -19.2013,5.78007 -37.08324,-29.21993 -17.88195,-35 -34.44454,-110.78007 -34.44454,-110.78007 z"
   stroke-linecap="round"
   id="path57" />
</g><g
     transform="matrix(-2.9196819,0,0,0.15931964,241.04529,305.43972)"
     id="dUUHsC1lxsbIq97FkeEKn">
<path
   style="opacity:1;fill:#ffffff;fill-rule:nonzero;stroke:#fc861d;stroke-width:0;stroke-linecap:butt;stroke-linejoin:miter;stroke-miterlimit:4;stroke-dasharray:none;stroke-dashoffset:0"
   vector-effect="non-scaling-stroke"
   d="m -35.76389,-132.01108 c 0,0 16.56259,82.38943 34.44454,133.33333 17.88195,50.9439 37.08324,70.44226 37.08324,70.44226 v 60.24656 c 0,0 -19.2013,-22.91634 -37.08324,-72.42078 C -19.2013,10.08586 -35.76389,-66.00666 -35.76389,-66.00666 Z"
   stroke-linecap="round"
   id="path60" />
</g></g>
</svg>
