<?xml version="1.0" encoding="UTF-8" standalone="no"?>
<!-- Created with Inkscape (http://www.inkscape.org/) -->

<svg
   version="1.1"
   id="svg2"
   xml:space="preserve"
   width="280.12244"
   height="62.914368"
   viewBox="0 0 280.12244 62.914366"
   sodipodi:docname="ci.svg"
   xmlns:inkscape="http://www.inkscape.org/namespaces/inkscape"
   xmlns:sodipodi="http://sodipodi.sourceforge.net/DTD/sodipodi-0.dtd"
   xmlns="http://www.w3.org/2000/svg"
   xmlns:svg="http://www.w3.org/2000/svg"><defs
     id="defs6" /><sodipodi:namedview
     id="namedview4"
     pagecolor="#ffffff"
     bordercolor="#666666"
     borderopacity="1.0"
     inkscape:pageshadow="2"
     inkscape:pageopacity="0.0"
     inkscape:pagecheckerboard="0"
     inkscape:showpageshadow="2"
     inkscape:deskcolor="#d1d1d1"
     showgrid="false" /><g
     id="g8"
     inkscape:groupmode="layer"
     inkscape:label="ci"
     transform="matrix(1.3333333,0,0,-1.3333333,-92.022743,404.95338)"><path
       d="m 125.66602,278.7002 c 0,-1.13282 -0.38721,-1.97168 -1.16358,-2.51661 -0.77637,-0.54492 -1.83056,-0.8164 -3.16113,-0.8164 -0.26367,0 -0.52295,0.0137 -0.7793,0.0469 -0.25683,0.0312 -0.51123,0.0674 -0.76269,0.10938 -0.25244,0.0518 -0.49805,0.10644 -0.73975,0.16601 -0.24121,0.0566 -0.46631,0.11719 -0.67578,0.17969 v 1.68359 c 0.12549,-0.0527 0.2832,-0.11816 0.47168,-0.19726 0.18799,-0.0781 0.41406,-0.15332 0.67627,-0.22754 0.26221,-0.0732 0.55517,-0.1377 0.88086,-0.18848 0.3247,-0.0518 0.68701,-0.0791 1.08545,-0.0791 0.29394,0 0.5791,0.0274 0.85742,0.0791 0.27832,0.0508 0.52588,0.14649 0.74707,0.28418 0.21045,0.12403 0.38037,0.29395 0.51172,0.50879 0.13037,0.2168 0.19629,0.48145 0.19629,0.79395 0,0.30664 -0.0606,0.56543 -0.18116,0.78125 -0.1206,0.21289 -0.27539,0.39551 -0.46386,0.54101 -0.18946,0.15821 -0.39844,0.292 -0.62989,0.40137 -0.23046,0.1123 -0.45556,0.22266 -0.67578,0.33789 -0.36767,0.16797 -0.75732,0.35742 -1.17187,0.56641 -0.41358,0.20898 -0.80518,0.45019 -1.17236,0.72558 -0.35596,0.26172 -0.65186,0.56446 -0.88917,0.91114 -0.23486,0.3457 -0.354,0.75 -0.354,1.21093 0,1.0293 0.354,1.78809 1.06348,2.28223 0.70605,0.49219 1.6167,0.73828 2.72802,0.73828 0.26221,0 0.52686,-0.0186 0.79444,-0.0547 0.26758,-0.0371 0.52685,-0.082 0.77881,-0.13476 0.24121,-0.0615 0.47412,-0.12207 0.70019,-0.18067 0.22559,-0.0566 0.42725,-0.10644 0.60547,-0.14843 v -1.69825 c -0.28369,0.14551 -0.68603,0.292 -1.21142,0.43848 -0.52442,0.14746 -1.1167,0.23731 -1.77735,0.26953 -0.53418,0 -0.97607,-0.11523 -1.32178,-0.34765 -0.3457,-0.23047 -0.51904,-0.57618 -0.51904,-1.03809 0,-0.21973 0.0478,-0.40918 0.1416,-0.56738 0.0942,-0.15723 0.22119,-0.29785 0.37744,-0.42383 0.15772,-0.12598 0.33936,-0.24219 0.54297,-0.3457 0.20557,-0.1045 0.417,-0.2168 0.63721,-0.32911 l 1.18018,-0.55273 c 0.25097,-0.15625 0.52929,-0.31348 0.83349,-0.47168 0.30274,-0.15625 0.59229,-0.3457 0.86524,-0.56445 0.26123,-0.2334 0.48437,-0.52149 0.66845,-0.86621 0.18311,-0.34668 0.28614,-0.78125 0.30616,-1.30664 z"
       style="fill:#231f20;fill-opacity:1;fill-rule:nonzero;stroke:none"
       id="path30"
       inkscape:export-filename="path30.png"
       inkscape:export-xdpi="96"
       inkscape:export-ydpi="96" /><path
       d="m 133.9126,275.53418 h -6.62256 v 11.31152 h 6.46484 v -1.50976 h -4.73437 v -3.13086 h 4.54687 v -1.50879 h -4.54687 v -3.65039 h 4.89209 z"
       style="fill:#231f20;fill-opacity:1;fill-rule:nonzero;stroke:none"
       id="path32" /><path
       d="m 145.24219,281.21777 c 0,-0.78613 -0.10059,-1.53418 -0.29932,-2.24121 -0.20019,-0.70703 -0.50342,-1.3291 -0.91162,-1.86426 -0.4209,-0.53417 -0.95557,-0.96093 -1.60596,-1.27441 -0.64892,-0.31445 -1.43066,-0.4707 -2.34277,-0.4707 -0.85059,0 -1.59717,0.14844 -2.24219,0.44726 -0.64502,0.29883 -1.18262,0.70899 -1.61279,1.23438 -0.4292,0.52441 -0.75488,1.14355 -0.97608,1.85644 -0.21875,0.71289 -0.32958,1.4834 -0.32958,2.3125 0,0.76465 0.11083,1.50098 0.32958,2.20313 0.2212,0.70215 0.54688,1.32129 0.97608,1.85644 0.43017,0.53321 0.96777,0.95899 1.61279,1.27344 0.64502,0.31348 1.3916,0.47168 2.24219,0.47168 0.84912,0 1.5957,-0.15039 2.24121,-0.44726 0.64404,-0.29981 1.18262,-0.71094 1.61279,-1.23633 0.43018,-0.52442 0.7544,-1.13867 0.97461,-1.83985 0.22071,-0.70214 0.33106,-1.46289 0.33106,-2.28125 m -1.71533,0.0156 c 0,0.58789 -0.0703,1.14453 -0.21192,1.67578 -0.14209,0.53027 -0.35498,0.99414 -0.63818,1.3916 -0.28321,0.38867 -0.63819,0.70117 -1.06983,0.93652 -0.42871,0.23633 -0.93847,0.35254 -1.52441,0.35254 -0.52539,0 -0.99951,-0.10839 -1.42383,-0.33007 -0.42529,-0.21973 -0.78467,-0.52247 -1.07764,-0.91114 -0.30468,-0.39941 -0.53515,-0.86328 -0.69238,-1.39258 -0.1582,-0.53027 -0.23584,-1.11035 -0.23584,-1.73828 0,-0.58789 0.0659,-1.14746 0.19678,-1.68261 0.13135,-0.53418 0.33789,-1.00879 0.62109,-1.41602 0.28272,-0.40918 0.63868,-0.73633 1.06885,-0.98242 0.43066,-0.24707 0.94434,-0.37109 1.54297,-0.37109 0.57617,0 1.07959,0.11328 1.50977,0.33886 0.43017,0.22461 0.79101,0.54297 1.08447,0.95117 0.2832,0.39844 0.49609,0.8711 0.63818,1.41602 0.1416,0.54395 0.21192,1.13379 0.21192,1.76172 z"
       style="fill:#231f20;fill-opacity:1;fill-rule:nonzero;stroke:none"
       id="path34" /><path
       d="m 155.13574,279.7998 c 0,-0.46289 -0.062,-0.95117 -0.18799,-1.47167 -0.12597,-0.52051 -0.34716,-1.00098 -0.66113,-1.43946 -0.31445,-0.44043 -0.7417,-0.80371 -1.28174,-1.09375 -0.54052,-0.28808 -1.22461,-0.43164 -2.05371,-0.43164 -0.8501,0 -1.54394,0.14063 -2.08349,0.42383 -0.54004,0.28418 -0.95704,0.63867 -1.25147,1.07031 -0.3042,0.44043 -0.51074,0.91992 -0.62012,1.43848 -0.11084,0.51953 -0.16504,1.02051 -0.16504,1.5039 v 7.0459 h 1.76124 v -7.01562 c 0,-0.36621 0.0308,-0.72656 0.0933,-1.07617 0.0635,-0.35254 0.18408,-0.66895 0.3623,-0.95508 0.17871,-0.28125 0.41895,-0.50879 0.72315,-0.68164 0.3042,-0.17383 0.69824,-0.25977 1.18017,-0.25977 0.46094,0 0.84668,0.083 1.15625,0.25098 0.30957,0.16797 0.5586,0.39258 0.74805,0.67676 0.18701,0.2832 0.32129,0.60351 0.40137,0.95898 0.0781,0.35742 0.11718,0.71973 0.11718,1.08594 v 7.01562 h 1.76172 v -7.0459 z"
       style="fill:#231f20;fill-opacity:1;fill-rule:nonzero;stroke:none"
       id="path36" /><path
       d="m 164.33838,275.56738 h -6.82666 v 11.27832 h 1.74512 v -9.76953 h 5.08154 z"
       style="fill:#231f20;fill-opacity:1;fill-rule:nonzero;stroke:none"
       id="path38" /><path
       d="m 181.30811,275.55176 h -1.60401 v 8.79492 h -0.0317 l -2.95703,-8.79492 h -1.59033 l -2.94141,8.79492 h -0.0464 v -8.79492 h -1.60547 v 11.29394 h 2.375 l 3.00586,-9.1084 h 0.0625 l 2.97314,9.1084 h 2.35987 v -11.29394 z"
       style="fill:#231f20;fill-opacity:1;fill-rule:nonzero;stroke:none"
       id="path40" /><path
       d="m 190.38623,275.53418 h -6.62305 v 11.31152 h 6.46582 v -1.50976 h -4.73437 v -3.13086 h 4.5459 v -1.50879 h -4.5459 v -3.65039 h 4.8916 z"
       style="fill:#231f20;fill-opacity:1;fill-rule:nonzero;stroke:none"
       id="path42" /><path
       d="m 198.90674,285.31738 h -3.16211 v -9.81543 h -1.73193 v 9.81543 h -3.12891 v 1.49414 h 8.02295 z"
       style="fill:#231f20;fill-opacity:1;fill-rule:nonzero;stroke:none"
       id="path44" /><path
       d="m 207.78662,275.52246 h -1.77734 l -0.45752,2.16992 c -0.146,0.66114 -0.3584,1.21192 -0.63672,1.65039 -0.27783,0.44239 -0.62061,0.74121 -1.03027,0.89746 -0.0928,-0.01 -0.18799,-0.0156 -0.28272,-0.0156 -0.0942,0 -0.18848,0 -0.28271,0 h -0.91309 v 1.50977 h 0.89746 c 0.3042,0 0.59961,0.0264 0.88867,0.0723 0.28809,0.0459 0.54248,0.13867 0.7627,0.27539 0.23047,0.12598 0.41455,0.3086 0.55078,0.55078 0.13623,0.24024 0.2041,0.55567 0.2041,0.94239 0,0.34765 -0.0757,0.63574 -0.22803,0.86523 -0.15234,0.23145 -0.35351,0.40918 -0.60547,0.53516 -0.24218,0.13574 -0.51416,0.23339 -0.81835,0.29101 -0.30323,0.0576 -0.60743,0.0869 -0.9126,0.0869 h -1.30518 v -9.81543 h -1.69922 v 11.32421 h 3.02051 c 0.52442,0 1.04639,-0.0488 1.56543,-0.14941 0.51904,-0.0996 0.98291,-0.26855 1.39307,-0.50879 0.41845,-0.24219 0.75634,-0.57422 1.01367,-1 0.25732,-0.4248 0.38623,-0.9668 0.38623,-1.6289 0,-0.74415 -0.15869,-1.34082 -0.47266,-1.79297 -0.31494,-0.4502 -0.71289,-0.79688 -1.1958,-1.03711 0.29346,-0.26367 0.57715,-0.60157 0.8501,-1.01367 0.27197,-0.41602 0.46143,-0.9004 0.56543,-1.45508 l 0.51953,-2.75391 z"
       style="fill:#231f20;fill-opacity:1;fill-rule:nonzero;stroke:none"
       id="path46" /><path
       d="m 219.17529,281.21777 c 0,-0.78613 -0.0996,-1.53418 -0.29834,-2.24121 -0.19922,-0.70703 -0.50341,-1.3291 -0.91308,-1.86426 -0.41895,-0.53417 -0.9541,-0.96093 -1.60449,-1.27441 -0.64942,-0.31445 -1.43067,-0.4707 -2.34278,-0.4707 -0.84961,0 -1.59765,0.14844 -2.2417,0.44726 -0.64502,0.29883 -1.18213,0.70899 -1.61279,1.23438 -0.4292,0.52441 -0.75488,1.14355 -0.9751,1.85644 -0.22021,0.71289 -0.33154,1.4834 -0.33154,2.3125 0,0.76465 0.11133,1.50098 0.33154,2.20313 0.22022,0.70215 0.5459,1.32129 0.9751,1.85644 0.43066,0.53321 0.96777,0.95899 1.61279,1.27344 0.64405,0.31348 1.39209,0.47168 2.2417,0.47168 0.84815,0 1.59619,-0.15039 2.24072,-0.44726 0.64454,-0.29981 1.18311,-0.71094 1.6128,-1.23633 0.42968,-0.52442 0.75537,-1.13867 0.97461,-1.83985 0.2207,-0.70214 0.33056,-1.46289 0.33056,-2.28125 m -1.71435,0.0156 c 0,0.58789 -0.0708,1.14453 -0.2124,1.67578 -0.14063,0.53027 -0.35352,0.99414 -0.63721,1.3916 -0.28272,0.38867 -0.63916,0.70117 -1.06885,0.93652 -0.43018,0.23633 -0.93994,0.35254 -1.52588,0.35254 -0.52441,0 -1,-0.10839 -1.42383,-0.33007 -0.42529,-0.21973 -0.78466,-0.52247 -1.07763,-0.91114 -0.3042,-0.39941 -0.53467,-0.86328 -0.6919,-1.39258 -0.15674,-0.53027 -0.23633,-1.11035 -0.23633,-1.73828 0,-0.58789 0.0654,-1.14746 0.19727,-1.68261 0.13037,-0.53418 0.33691,-1.00879 0.62109,-1.41602 0.28272,-0.40918 0.63916,-0.73633 1.06885,-0.98242 0.43067,-0.24707 0.94434,-0.37109 1.54248,-0.37109 0.57569,0 1.08008,0.11328 1.50928,0.33886 0.43017,0.22461 0.79248,0.54297 1.08545,0.95117 0.28369,0.39844 0.49658,0.8711 0.63721,1.41602 0.1416,0.54395 0.2124,1.13379 0.2124,1.76172 z"
       style="fill:#231f20;fill-opacity:1;fill-rule:nonzero;stroke:none"
       id="path48" /><path
       d="m 228.2832,283.49609 c 0,-0.67285 -0.12744,-1.22754 -0.38574,-1.66699 -0.25586,-0.44238 -0.5835,-0.79394 -0.98291,-1.05469 -0.39844,-0.27246 -0.84717,-0.46289 -1.34521,-0.5664 -0.49756,-0.10547 -0.9878,-0.15625 -1.4712,-0.15625 h -0.92724 v 1.54101 h 0.9126 c 0.29394,0 0.58398,0.0244 0.87353,0.0781 0.28662,0.0518 0.54688,0.14746 0.77783,0.28223 0.22022,0.14648 0.40137,0.34472 0.54297,0.59082 0.14258,0.24707 0.21192,0.5625 0.21192,0.95214 0,0.34571 -0.0781,0.63379 -0.23584,0.86524 -0.15674,0.23144 -0.35645,0.41894 -0.59766,0.5664 -0.25146,0.14649 -0.52832,0.25098 -0.83398,0.31348 -0.3042,0.0635 -0.60791,0.0947 -0.91114,0.0947 h -1.30664 v -9.80176 h -1.69922 v 11.31152 h 3.02149 c 0.52246,0 1.0459,-0.0527 1.56445,-0.15625 0.51904,-0.10547 0.9834,-0.28418 1.3916,-0.53515 0.41992,-0.26367 0.75879,-0.6084 1.01465,-1.03809 0.2583,-0.43164 0.38574,-0.97168 0.38574,-1.62012 z"
       style="fill:#231f20;fill-opacity:1;fill-rule:nonzero;stroke:none"
       id="path50" /><path
       d="m 239.31055,281.21777 c 0,-0.78613 -0.0986,-1.53418 -0.29834,-2.24121 -0.19873,-0.70703 -0.50342,-1.3291 -0.91309,-1.86426 -0.41894,-0.53417 -0.9541,-0.96093 -1.60351,-1.27441 -0.65137,-0.31445 -1.43165,-0.4707 -2.34424,-0.4707 -0.84961,0 -1.59668,0.14844 -2.24121,0.44726 -0.64649,0.29883 -1.18262,0.70899 -1.6128,1.23438 -0.43066,0.52441 -0.75537,1.14355 -0.97509,1.85644 -0.22022,0.71289 -0.33008,1.4834 -0.33008,2.3125 0,0.76465 0.10986,1.50098 0.33008,2.20313 0.21972,0.70215 0.54443,1.32129 0.97509,1.85644 0.43018,0.53321 0.96631,0.95899 1.6128,1.27344 0.64453,0.31348 1.3916,0.47168 2.24121,0.47168 0.84961,0 1.59668,-0.15039 2.24121,-0.44726 0.64551,-0.29981 1.18359,-0.71094 1.61279,-1.23633 0.43018,-0.52442 0.75537,-1.13867 0.9751,-1.83985 0.2207,-0.70214 0.33008,-1.46289 0.33008,-2.28125 m -1.71387,0.0156 c 0,0.58789 -0.0708,1.14453 -0.2124,1.67578 -0.14112,0.53027 -0.35449,0.99414 -0.6377,1.3916 -0.28222,0.38867 -0.64013,0.70117 -1.07031,0.93652 -0.4292,0.23633 -0.93799,0.35254 -1.5249,0.35254 -0.52442,0 -0.99903,-0.10839 -1.42334,-0.33007 -0.42578,-0.21973 -0.78467,-0.52247 -1.07764,-0.91114 -0.3042,-0.39941 -0.53516,-0.86328 -0.69238,-1.39258 -0.15674,-0.53027 -0.23633,-1.11035 -0.23633,-1.73828 0,-0.58789 0.0664,-1.14746 0.19629,-1.68261 0.13183,-0.53418 0.33887,-1.00879 0.62109,-1.41602 0.28418,-0.40918 0.64014,-0.73633 1.07032,-0.98242 0.43066,-0.24707 0.94482,-0.37109 1.54199,-0.37109 0.57666,0 1.08008,0.11328 1.51025,0.33886 0.42969,0.22461 0.79102,0.54297 1.08496,0.95117 0.28321,0.39844 0.49658,0.8711 0.6377,1.41602 0.1416,0.54395 0.2124,1.13379 0.2124,1.76172 z"
       style="fill:#231f20;fill-opacity:1;fill-rule:nonzero;stroke:none"
       id="path52" /><path
       d="m 247.86816,275.56738 h -6.82763 v 11.27832 h 1.74707 v -9.76953 h 5.08056 z"
       style="fill:#231f20;fill-opacity:1;fill-rule:nonzero;stroke:none"
       id="path54" /><path
       d="m 250.7373,275.53418 h -1.77734 v 11.31152 h 1.77734 z"
       style="fill:#231f20;fill-opacity:1;fill-rule:nonzero;stroke:none"
       id="path56" /><path
       d="m 260.09912,285.31738 h -3.1626 v -9.81543 h -1.73047 v 9.81543 h -3.12988 v 1.49414 h 8.02295 z"
       style="fill:#231f20;fill-opacity:1;fill-rule:nonzero;stroke:none"
       id="path58" /><path
       d="m 269.89795,275.55273 h -1.90283 l -1.14893,3.31934 h -3.9331 l -1.22657,-3.31934 h -1.74658 l 4.04346,11.30957 h 1.83935 l 4.0752,-11.30957 m -3.5708,4.83106 -1.36914,4.45117 h -0.0625 l -1.49365,-4.45117 z"
       style="fill:#231f20;fill-opacity:1;fill-rule:nonzero;stroke:none"
       id="path60" /><path
       d="m 279.10889,275.53418 h -2.03125 l -4.35694,8.73242 h -0.063 v -8.73242 h -1.66796 v 11.31152 h 2.07714 l 4.32666,-8.77734 h 0.0459 v 8.77734 h 1.66944 v -11.31152 z"
       style="fill:#231f20;fill-opacity:1;fill-rule:nonzero;stroke:none"
       id="path62" /><path
       d="m 127.41846,264.55469 h -1.77735 c 0,0.41894 -0.0571,0.77148 -0.17334,1.05371 -0.11621,0.28418 -0.27295,0.50879 -0.47168,0.67676 -0.20947,0.16797 -0.44336,0.28808 -0.70068,0.36132 -0.25684,0.0742 -0.52051,0.11524 -0.79443,0.12793 -0.48194,0 -0.93262,-0.0986 -1.35254,-0.29296 -0.41944,-0.19336 -0.78125,-0.47461 -1.08545,-0.84082 -0.31445,-0.36817 -0.55762,-0.8125 -0.73145,-1.33887 -0.17285,-0.52246 -0.25927,-1.1211 -0.25927,-1.79102 0,-0.36816 0.0469,-0.80859 0.1416,-1.32226 0.0942,-0.51465 0.27734,-1.00684 0.55078,-1.47852 0.27197,-0.4707 0.6582,-0.87793 1.15625,-1.21973 0.49756,-0.34179 1.15478,-0.5166 1.97314,-0.52734 0.32617,0 0.63575,0.0244 0.92871,0.0713 0.29395,0.0478 0.57227,0.11719 0.83448,0.21289 v 3.02051 h -2.70606 v 1.54199 h 4.43604 v -5.50684 l -0.37842,-0.0625 c -0.146,-0.0635 -0.31592,-0.13769 -0.51074,-0.2207 -0.19385,-0.084 -0.42774,-0.16211 -0.69922,-0.23535 -0.27295,-0.0742 -0.59082,-0.13281 -0.95215,-0.18066 -0.36182,-0.0469 -0.7793,-0.0733 -1.25049,-0.0733 -0.92334,0 -1.71484,0.17676 -2.37598,0.5293 -0.66064,0.35156 -1.20605,0.81055 -1.63525,1.37695 -0.43066,0.5752 -0.74707,1.22364 -0.95264,1.94239 -0.20459,0.71777 -0.30566,1.44824 -0.30566,2.19433 0,0.73438 0.10449,1.43848 0.31397,2.11621 0.20947,0.67578 0.53515,1.27539 0.97607,1.79981 0.4292,0.51367 0.96924,0.92676 1.61963,1.24414 0.65039,0.31445 1.41162,0.4707 2.28076,0.4707 0.52441,0 1.02344,-0.0762 1.49463,-0.22754 0.47168,-0.15234 0.88623,-0.38086 1.24267,-0.68554 0.35596,-0.30372 0.63965,-0.6836 0.84961,-1.13965 0.20996,-0.45703 0.31446,-0.98731 0.31446,-1.59668 z"
       style="fill:#231f20;fill-opacity:1;fill-rule:nonzero;stroke:none"
       id="path64" /><path
       d="m 139.18457,262.38086 c 0,-0.78516 -0.0991,-1.53223 -0.29785,-2.24121 -0.2002,-0.70703 -0.50342,-1.3291 -0.91211,-1.86328 -0.42139,-0.53614 -0.95508,-0.95996 -1.60547,-1.27442 -0.6499,-0.31347 -1.43115,-0.47265 -2.34277,-0.47265 -0.8501,0 -1.59717,0.15136 -2.24219,0.44922 -0.64502,0.29785 -1.18359,0.71093 -1.61279,1.23535 -0.4292,0.52246 -0.75537,1.14258 -0.97461,1.85644 -0.22071,0.71289 -0.33155,1.48145 -0.33155,2.31055 0,0.76758 0.11084,1.50195 0.33155,2.2041 0.21924,0.70117 0.54541,1.32129 0.97461,1.85547 0.4292,0.53516 0.96777,0.95996 1.61279,1.27441 0.64502,0.31446 1.39209,0.47168 2.24219,0.47168 0.84814,0 1.5957,-0.15039 2.24072,-0.44824 0.64453,-0.29785 1.18311,-0.70996 1.6123,-1.23437 0.43018,-0.52442 0.75538,-1.13868 0.9751,-1.84082 0.22022,-0.70215 0.33008,-1.46387 0.33008,-2.28223 m -1.71387,0.0176 c 0,0.58789 -0.0713,1.14551 -0.21191,1.6748 -0.14307,0.5293 -0.35449,0.99317 -0.63818,1.39258 -0.28321,0.3877 -0.63916,0.69922 -1.06836,0.93555 -0.43018,0.23535 -0.94043,0.35449 -1.52588,0.35449 -0.52442,0 -1,-0.11133 -1.42383,-0.33203 -0.42529,-0.21875 -0.78516,-0.52344 -1.07861,-0.91211 -0.30372,-0.39844 -0.53516,-0.86133 -0.6919,-1.3916 -0.15625,-0.5293 -0.23535,-1.10938 -0.23535,-1.73926 0,-0.58594 0.0649,-1.14746 0.19629,-1.68164 0.13086,-0.53516 0.33789,-1.00684 0.62207,-1.41699 0.28223,-0.40821 0.63916,-0.73633 1.06836,-0.98243 0.43066,-0.24511 0.94433,-0.37011 1.54297,-0.37011 0.57617,0 1.07959,0.11328 1.50879,0.33789 0.43115,0.22558 0.79248,0.54297 1.08545,0.95312 0.28369,0.39746 0.49511,0.86914 0.63818,1.41504 0.14062,0.5459 0.21191,1.13281 0.21191,1.7627 z"
       style="fill:#231f20;fill-opacity:1;fill-rule:nonzero;stroke:none"
       id="path66" /><path
       d="m 149.28564,268.01172 -3.94677,-11.3125 h -1.88867 l -3.96436,11.3125 h 1.85693 l 3.00391,-9.15625 0.12598,0.0156 3.00488,9.14063 h 1.8081 z"
       style="fill:#231f20;fill-opacity:1;fill-rule:nonzero;stroke:none"
       id="path68" /><path
       d="m 156.95898,256.69922 h -6.62402 v 11.3125 h 6.46582 v -1.5127 h -4.7334 v -3.12988 h 4.54639 v -1.50976 h -4.54639 v -3.64844 h 4.8916 z"
       style="fill:#231f20;fill-opacity:1;fill-rule:nonzero;stroke:none"
       id="path70" /><path
       d="m 166.33643,256.68652 h -1.77784 l -0.45703,2.1709 c -0.14599,0.66113 -0.35888,1.21094 -0.63672,1.65137 -0.27685,0.44141 -0.62158,0.73828 -1.03027,0.89648 -0.0942,-0.0107 -0.18848,-0.0166 -0.28223,-0.0166 -0.0952,0 -0.18945,0 -0.28418,0 h -0.91211 v 1.51172 h 0.89698 c 0.30322,0 0.59961,0.0225 0.88867,0.0703 0.28809,0.0459 0.54248,0.13868 0.76269,0.27539 0.23145,0.12598 0.41504,0.31055 0.54981,0.55079 0.13721,0.24121 0.20459,0.55468 0.20459,0.94335 0,0.34668 -0.0757,0.63477 -0.22803,0.86622 -0.15137,0.22851 -0.35303,0.4082 -0.60498,0.53515 -0.24072,0.13477 -0.51367,0.23242 -0.81787,0.28906 -0.30469,0.0576 -0.60791,0.0869 -0.91309,0.0869 h -1.30517 v -9.81543 h -1.69922 v 11.32617 h 3.021 c 0.52441,0 1.04638,-0.0508 1.56396,-0.14941 0.52002,-0.10059 0.9834,-0.27051 1.39307,-0.51172 0.41943,-0.24121 0.7583,-0.57422 1.01465,-0.99805 0.25732,-0.42578 0.38525,-0.9668 0.38525,-1.62891 0,-0.74414 -0.15674,-1.34179 -0.47119,-1.79296 -0.31543,-0.4502 -0.71436,-0.79786 -1.19678,-1.03809 0.29443,-0.2627 0.57715,-0.60156 0.84961,-1.01563 0.27246,-0.4121 0.46191,-0.89843 0.56641,-1.45507 l 0.52002,-2.75196 z"
       style="fill:#231f20;fill-opacity:1;fill-rule:nonzero;stroke:none"
       id="path72" /><path
       d="m 176.22852,256.69922 h -2.0293 l -4.35693,8.73047 h -0.063 v -8.73047 h -1.66895 v 11.3125 h 2.07861 l 4.32569,-8.77832 h 0.0464 v 8.77832 h 1.66748 z"
       style="fill:#231f20;fill-opacity:1;fill-rule:nonzero;stroke:none"
       id="path74" /><path
       d="m 189.40967,256.71582 h -1.60596 v 8.79297 h -0.0312 l -2.95654,-8.79297 h -1.58838 l -2.94287,8.79297 h -0.0464 v -8.79297 h -1.60498 v 11.2959 h 2.37598 l 3.00439,-9.10938 h 0.0625 l 2.97412,9.10938 h 2.35938 v -11.2959 z"
       style="fill:#231f20;fill-opacity:1;fill-rule:nonzero;stroke:none"
       id="path76" /><path
       d="m 198.48828,256.69922 h -6.62305 v 11.3125 h 6.46582 v -1.5127 h -4.73584 v -3.12988 h 4.54639 v -1.50976 h -4.54639 v -3.64844 h 4.89307 z"
       style="fill:#231f20;fill-opacity:1;fill-rule:nonzero;stroke:none"
       id="path78" /><path
       d="m 208.31885,256.69922 h -2.02881 l -4.35742,8.73047 h -0.0635 v -8.73047 h -1.66699 v 11.3125 h 2.07666 l 4.32617,-8.77832 h 0.0469 v 8.77832 h 1.66699 z"
       style="fill:#231f20;fill-opacity:1;fill-rule:nonzero;stroke:none"
       id="path80" /><path
       d="m 217.54688,266.48047 h -3.16163 v -9.81543 h -1.73095 v 9.81543 h -3.1294 v 1.49414 h 8.02198 z"
       style="fill:#231f20;fill-opacity:1;fill-rule:nonzero;stroke:none"
       id="path82" /><path
       d="m 95.19775,297.43457 c 0.08887,-0.14062 0.20557,-0.26465 0.21973,-0.40527 0.13379,-0.40918 0.5127,-0.65625 0.55957,-1.07422 0.01514,-0.13867 0.19678,-0.19434 0.29102,-0.25488 0.10058,-0.13184 0.03173,-0.28028 0.22802,-0.47364 0.09375,-0.0596 0.02246,-0.20801 0.03809,-0.34765 0.09375,-0.0615 0.19043,-0.12403 0.2832,-0.18457 0.84912,-1.32911 0.93213,-2.87403 -0.05273,-4.30469 -0.15772,-0.15625 -0.30908,-0.38086 -0.37207,-0.59863 -0.07862,-0.0791 -0.24512,-0.16407 -0.32617,-0.24317 0.01709,-0.13965 0.10986,-0.19922 0.21289,-0.33203 -0.42578,-0.11133 -0.4751,-0.46582 -0.8003,-0.70996 -0.08642,-0.008 -0.25976,-0.0234 -0.34668,-0.0312 -0.23925,-0.23535 -0.49218,-0.3291 -0.7373,-0.49316 -0.07764,-0.0781 -0.05566,-0.28809 -0.04736,-0.35645 -0.40528,-0.32031 -0.99707,-0.51758 -1.61573,-0.50391 -0.08447,-0.01 -0.14843,-0.22558 -0.23437,-0.23535 -0.43701,-0.041 -0.96436,-0.0205 -1.3999,-0.0586 -0.18164,0.0527 -0.28321,0.18262 -0.46631,0.23633 -0.17334,-0.0166 -0.34766,-0.0312 -0.5293,0.0205 -0.2832,0.1875 -0.63867,0.22364 -0.91699,0.33887 -0.18213,0.0537 -0.51367,-0.11816 -0.70166,0.003 -0.58496,0.51172 -1.16651,1.01953 -1.48828,1.55469 -0.21436,0.33105 -0.57666,0.4375 -0.70215,0.7793 -0.01563,0.13964 0.05029,0.35644 -0.1333,0.41015 -0.36328,0.10645 -0.21192,0.33203 -0.23487,0.54199 -0.10888,0.2002 -0.12597,0.33985 -0.32324,0.53418 -0.11035,0.2002 0.03369,0.49707 -0.08301,0.76661 -0.0078,0.0693 0.07129,0.14843 0.06299,0.21777 -0.13232,0.41016 0.08252,0.85351 0.04297,1.20215 -0.02392,0.20996 0.0332,0.49609 0.09619,0.71484 0.21631,0.44336 0.42285,0.95606 0.81201,1.41504 -0.0093,0.0684 -0.02392,0.20898 -0.03027,0.27832 0.07764,0.0791 0.16504,0.085 0.24463,0.16504 0.13525,0.36426 0.27783,0.66016 0.50879,0.96289 0.30859,0.38184 0.7998,0.70996 1.19629,1.09863 0.23633,0.2334 0.5708,0.40625 0.79101,0.78125 0.08008,0.0781 0.35694,-0.0381 0.4375,0.0381 0.23682,0.23437 0.59229,0.19824 0.83741,0.3623 0.24609,0.16211 0.19677,-0.19238 0.4497,-0.0986 0.17383,0.0166 0.25293,0.0937 0.41895,0.18066 0.25293,0.0928 0.53711,-0.0898 0.80713,-0.13671 0.25928,0.0244 0.52881,-0.0215 0.81347,-0.20508 0.37745,-0.2461 1.24756,-0.16406 1.3877,-0.64551 0.21289,-0.33203 0.59082,-0.57812 0.80273,-0.90918 z"
       style="fill:#be1135;fill-opacity:1;fill-rule:nonzero;stroke:none"
       id="path266" /><path
       d="m 109.91602,291.91602 c -0.009,0.21875 0,0.34961 -0.0874,0.58007 -0.0239,0.2168 0.14844,0.45996 0.0733,0.75684 -0.0493,0.0801 -0.16016,0.1748 -0.146,0.24414 0.146,0.45703 0.15869,0.87598 0.12207,1.37402 -0.0371,0.15039 -0.0864,0.23047 -0.13623,0.3125 0.0112,0.0664 0.0376,0.20118 0.062,0.33692 0.0107,0.41797 -0.12353,0.72851 -0.24658,1.10742 -0.0366,0.14746 -0.14844,0.24219 -0.17236,0.45801 -0.0488,0.0811 -0.15967,0.17773 -0.14893,0.24511 0.11084,0.60645 -0.18457,1.09278 -0.27197,1.67383 -0.13574,0.66016 -0.76221,1.07813 -0.95996,1.75196 0.0102,0.0684 0.21582,0.041 0.27783,0.0264 0.4917,-0.458 1.03564,-0.99804 1.17041,-1.65918 0.0864,-0.23144 0.0488,-0.43261 0.14892,-0.59472 0.41748,-0.51172 0.49122,-1.16114 0.56641,-1.8086 -0.0117,-0.0674 0.12305,-0.0264 0.17236,-0.10937 -0.0122,-0.0664 -0.0371,-0.20117 0.0122,-0.28223 0.31983,-0.35058 0.12305,-0.72754 0.18604,-1.09472 0.0371,-0.14649 0.085,-0.22852 0.13379,-0.30958 -0.0117,-0.0693 -0.1709,-0.24511 -0.18506,-0.30859 0.26074,-0.33887 0.37109,-0.78516 0.29882,-1.18945 0.2959,-0.13574 0.16016,-0.52637 0.23243,-0.82324 0.0479,-0.082 0.1123,-0.0957 0.17382,-0.1084 0.0845,0.12207 0.17041,0.24316 0.19581,0.3789 0.0366,0.55274 0.0615,1.03907 -0.0386,1.55176 -0.0845,0.22852 -0.1123,0.44531 0.0493,0.62012 -0.12354,0.0273 -0.16162,0.17676 -0.20948,0.25781 -0.22119,0.8916 -0.31298,1.8877 -0.57666,2.80078 0,0 0.0718,0.0527 0.0874,0.12012 -0.0947,0.79687 -0.70264,1.54883 -0.99024,2.35156 -0.0454,0.14551 -0.27929,0.31738 -0.38916,0.46875 0,0 0.009,0.0693 0.0156,0.1377 0.31152,-0.042 0.54834,-0.34375 0.7124,-0.5752 0.32568,-0.46094 0.69922,-0.97363 0.79736,-1.48633 0.17237,-0.45703 0.42774,-0.9414 0.52979,-1.38964 0.0684,-0.29688 0.28467,-0.49219 0.42773,-0.73926 0.0811,-0.23242 0.04,-0.43164 0.0601,-0.64844 0.0884,-0.5166 0.24463,-1.01465 0.34229,-1.5293 0.12451,-0.37793 0.17529,-0.80859 0.0503,-1.13281 -0.1709,-0.59473 0.22266,-1.24219 0.38184,-1.76855 0.0874,-0.23047 -0.0229,-0.48633 -0.12061,-0.67579 -0.0117,-0.0664 0.0977,-0.1621 0.085,-0.22851 -0.11035,-0.25586 -0.023,-0.48731 -0.0732,-0.75684 -0.0728,-0.0527 0.0859,-0.22949 4.9e-4,-0.34863 -0.0733,-0.0566 -0.13379,-0.043 -0.2085,-0.0986 -0.0991,-0.18848 -0.0127,-0.41699 -0.0498,-0.62012 -0.19727,-0.37598 -0.0972,-0.88965 -0.46631,-1.16016 -0.13672,-0.04 -0.14893,-0.10839 -0.22315,-0.16113 0.0625,-0.0137 0.1128,-0.0957 0.15967,-0.17676 -0.0732,-0.0537 -0.13525,-0.0391 -0.2085,-0.0937 -0.0234,-0.13476 0.2378,-0.2998 0.2876,-0.38086 -0.0991,-0.54101 -0.5039,-1.01269 -0.49121,-1.64843 -0.0254,-0.13477 -0.0635,-0.33692 -0.0854,-0.47266 -0.12451,-0.32324 -0.35791,-0.55469 -0.48095,-0.87695 -0.0239,-0.13379 -0.28223,-0.14844 -0.30762,-0.28418 -0.16016,-0.17481 -0.14551,-0.45899 -0.25781,-0.71582 -0.0855,-0.1211 -0.27051,-0.0811 -0.41797,-0.1875 -0.17139,-0.24121 -0.14795,-0.45996 -0.25733,-0.71582 -0.18603,-0.31153 -0.41064,-0.64551 -0.59375,-0.95606 -0.20898,-0.44433 -0.5625,-0.87402 -0.94189,-1.21191 -0.0615,0.0127 -0.19727,-0.0274 -0.27149,-0.082 -0.1958,-0.37696 -0.42236,-0.66211 -0.83935,-0.85157 -0.0625,0.0137 -0.15479,-0.27929 -0.22803,-0.33398 -0.28808,-0.21582 -0.4541,-0.45898 -0.80371,-0.66113 -0.13086,-0.041 -0.20361,-0.0957 -0.34863,0.14843 -0.45606,-0.8125 -1.06836,-1.44531 -1.73145,-2 -0.34619,-0.20214 -0.69824,-0.17968 -0.92724,-0.4082 -0.75538,-0.74414 -1.95606,-1.53222 -2.09278,-1.64355 -0.0581,0.0147 -0.28857,-0.3291 -0.28857,-0.3291 -0.24463,-0.0215 -0.10449,-0.0439 -0.32959,0.009 0,0 -0.0107,-0.38183 -0.31787,-0.44433 -0.64991,-0.12695 -0.82227,-0.88281 -0.87158,-1.19434 -0.02588,-0.15527 -0.13331,-0.0488 -0.20899,-0.1123 -0.07178,-0.0625 -0.0249,-0.1543 -0.09814,-0.21973 -0.28174,-0.17285 -0.52539,-0.51953 -0.76075,-0.78515 -0.07226,-0.0635 -0.12158,0.0303 -0.1958,-0.0342 -0.07373,-0.0625 -0.41797,-0.49219 -0.54248,-0.86524 -0.29541,-0.65918 -0.61963,-1.24609 -1.02636,-1.71191 -0.09961,-0.11328 0.23046,-0.55274 0.20507,-0.70117 -0.09375,-0.20899 -0.28173,-0.24317 -0.37353,-0.4502 -0.08447,-0.5166 -0.10742,-1.0918 -0.19678,-1.63672 -0.14697,-0.5332 0.03613,-0.91211 0.10889,-1.38769 0.08008,-0.40137 -0.02246,-0.91895 -0.002,-1.30664 0.02833,-0.31446 0.24268,-0.65625 0.20801,-0.96094 0.01074,-0.4668 -0.0957,-0.40332 0.0054,-0.79688 -0.01367,-0.22851 -0.08838,-0.45605 -0.03564,-0.6123 -0.01904,-0.30762 -0.06787,-0.49805 -0.08496,-0.80469 -0.06592,-0.0742 -0.19971,-0.21777 -0.20361,-0.29492 -0.04688,-0.76758 -0.54834,-1.44434 -1.07471,-1.94824 -0.32569,-0.20801 -0.6084,-0.52832 -0.98096,-0.50196 -0.18701,0.0107 -0.81055,-0.38476 -1.01953,-0.43359 -0.55225,-0.15625 -0.99316,-0.1582 -1.52002,-0.085 -0.58447,0.1582 -1.04639,0.30469 -1.44922,0.90234 -0.2373,0.26563 -0.64892,0.16504 -0.80371,0.5752 -0.04639,0.16113 -0.38379,0.24511 -0.43945,0.33105 -0.30518,0.27344 -0.46729,0.60742 -0.6958,0.94824 -0.15479,0.40821 -0.04297,0.68653 -0.22754,1.08204 -0.1919,0.24316 -0.27442,0.41406 -0.46436,0.65722 -0.25488,0.32129 0.05811,0.78516 -0.1289,1.10352 -0.13135,0.0859 -0.25684,0.24609 -0.31885,0.40527 -0.12256,0.31543 -0.09424,0.77246 -0.28125,1.10547 -0.10303,0.40039 -0.03711,1.84668 0.03955,2.23633 0.01465,0.0801 -0.20996,0.18847 -0.19727,0.26758 0.03174,0.56054 0.22559,1.10644 0.18164,1.68457 0.0586,0.3125 0.03028,0.56152 0.3125,0.82715 0,0 -0.1333,0.10937 -0.11914,0.1875 0.16407,0.45214 0.16211,0.7998 0.25147,1.2705 0.01465,0.0781 0.1792,0.125 0.19482,0.2041 -0.09131,0.34375 -0.09521,1.04102 -0.03662,1.35352 0.03076,0.15625 0.4336,0.38867 0.52735,0.53027 0.01367,0.0762 -0.0586,0.27735 0.09228,0.54688 0.03857,0.0674 0.14404,0.0459 0.22217,0.10937 0.01221,0.0781 -0.03858,0.16993 -0.0249,0.24903 0.03857,0.2334 0.43359,0.40234 0.46191,0.55761 0.15527,0.53125 0.42236,0.75196 0.70068,1.18457 0.10205,0.18848 0.13916,0.39258 0.30371,0.56739 0.07373,0.0527 0.11084,9.7e-4 0.12305,0.0693 0.0127,0.0664 -0.02148,0.2168 -0.01221,0.28321 0.15723,0.17675 0.37354,0.33691 0.40918,0.54004 0.10889,0.25781 0.20508,0.44531 0.36036,0.62304 0.28906,0.21485 0.57812,0.43164 0.75683,0.74121 0.15576,0.17578 0.33643,0.13575 0.49414,0.3125 0.22656,0.23047 0.2876,0.56641 0.45557,0.8086 0.39746,0.47461 0.82959,0.79687 1.26172,1.12207 0.35986,0.27148 0.81787,0.3789 1.16601,0.58203 0.36035,0.27051 0.57715,0.78223 0.92578,0.98437 0.21436,0.16309 0.46778,0.17676 0.68555,0.33887 0.21582,0.16211 0.39649,0.47266 0.7207,0.54199 0.71778,0.18848 0.20362,-0.0147 0.87647,0.25489 0.41992,0.25683 0.24609,0.32812 0.6665,0.58496 0.69678,0.40527 1.05957,0.66406 1.11866,0.64941 0.07226,0.0557 0.14355,0.11035 0.16796,0.24414 0.16846,0.24512 1.06153,0.86817 1.19483,0.90918 0.13135,0.041 0.28857,-0.13379 0.44287,0.041 0.084,0.12109 -0.085,0.22851 0,0.35058 0.22851,0.23145 0.44726,0.54004 0.66992,0.70313 0.0728,0.0527 0.24609,-0.0557 0.38086,-0.0137 0.0732,0.0537 0.0977,0.18847 0.17139,0.24218 0.0864,0.1211 -0.0737,0.2959 0.0117,0.41993 0.0991,0.18847 0.19629,0.37695 0.33252,0.41699 0.21044,0.0947 0.49218,0.24316 0.45654,0.38965 0.0469,0.27148 0.1582,0.52929 0.4414,0.67675 0.0127,0.0664 0.0264,0.1377 0.0366,0.20313 0.15918,0.17578 0.30761,0.28223 0.46875,0.45703 0.17041,0.24316 0.0962,0.54004 0.19628,0.73047 0.31788,0.35058 0.62647,0.63379 0.71241,1.10547 -0.0239,0.21777 -0.16016,0.52832 -0.061,0.71777 0.085,0.12109 0.35498,0.20117 0.38037,0.33594 0.0488,0.27246 -0.0869,0.58203 -0.0991,0.86523 0.0357,0.20215 0.25684,0.36426 0.23291,0.58008 -0.0249,0.56738 0.0122,1.12109 -0.0727,1.70117 0.19482,0.0264 0.2207,0.16309 0.24365,0.29688 -0.0488,0.43261 -0.29541,0.83691 -0.40527,1.2832 -0.0122,0.28418 0.21924,0.5127 0.20801,0.7959 -0.0254,0.2168 -0.23194,0.47363 -0.45655,0.66113 -0.20752,0.25781 -0.0723,0.64746 -0.14599,0.94434 -0.0615,0.36523 -0.33448,0.63672 -0.3833,1.06738 -0.0249,0.2168 -0.28321,0.20313 -0.36915,0.43164 -0.0742,0.29688 -0.14794,0.59473 -0.14794,0.94531 -0.0371,0.14844 -0.23438,0.12207 -0.34473,0.2168 -0.24756,0.40527 -0.16016,1.22852 -0.70264,1.41602 0.0488,0.27148 -0.19629,0.32617 -0.28369,0.55468 0.32031,0 0.61572,-0.13476 0.80078,-0.52636 0.0488,-0.0811 0.2334,-0.12207 0.29444,-0.13575 0.16162,-0.1748 0.14941,-0.59375 0.32177,-0.7041 0.22071,-0.18554 0.55274,-0.11914 0.63965,-0.34961 0.12305,-0.37597 0.40674,-0.57812 0.54248,-0.88964 -0.0127,-0.0674 0.0244,-0.21583 0.0728,-0.29786 0.22314,-0.18847 0.24755,-0.40429 0.40478,-0.5791 0.37012,-0.43164 0.74072,-0.86621 0.56738,-1.45801 -0.10791,-0.25781 0.22266,-0.18945 0.32325,-0.35058 0.24609,-0.40528 0.14599,-0.94629 0.46679,-1.2959 -0.0615,-0.68945 0.27246,-1.32422 0.48194,-1.93164 -0.35743,-0.55274 -0.15918,-1.52344 0.12451,-2.07617 0,0 0.19678,0.0264 0.21045,0.0937 0.0605,0.33593 0.67383,0.44922 0.5747,0.61133 -0.12353,0.3789 -0.30859,1.16796 -0.30859,1.51757 0.0371,0.55567 0.061,1.04297 -0.0254,1.62305 -0.0488,0.0801 -0.0981,0.16211 -0.14746,0.24121 -0.0742,0.29883 -0.14795,0.59668 -0.0859,0.93164 -0.0371,0.14942 -0.14795,0.24219 -0.18506,0.39258 0.0127,0.0684 0.0371,0.20215 0.0488,0.26953 0.13623,0.04 0.30859,-0.0674 0.43067,-0.0947 0.11279,-0.0947 0.0117,-0.28222 0.062,-0.36425 0.19726,-0.32325 0.49218,-0.45899 0.55371,-0.82422 -0.0117,-0.0654 -0.0361,-0.20117 -0.0474,-0.26953 0.0488,-0.43262 0.30616,-0.76953 0.36915,-1.13477 0.0254,-0.21484 -0.15772,-0.52441 -0.0728,-0.75488 0.28223,-0.55371 0.29443,-1.1875 0.24756,-1.8086 -0.0503,-0.2705 0.29297,-0.4873 0.1958,-0.67382 -0.0967,-0.19043 0.0259,-0.2168 -0.0742,-0.40723 -0.0117,-0.0664 -0.14697,-0.10645 -0.15771,-0.1748 0.1831,-0.39161 -0.0947,-0.98536 -0.15723,-1.32325 -0.0117,-0.0674 0.21045,-0.13965 0.25537,0.10938 0.0278,0.14941 0.28369,0.14844 0.41699,0.18652 0.14893,0.11133 0.2583,0.36719 0.24659,0.64942 m 1.32568,-1.34961 c 0.0117,0.34472 0.17236,0.59472 0.11035,0.958 -0.12207,0.37989 -0.40039,0.003 -0.59912,-0.0234 0.1123,-0.44434 -0.0723,-0.75586 -0.20801,-1.14649 -0.085,-0.12207 -0.14599,-0.45996 0.0493,-0.43261 0.30859,-0.0693 0.63672,0.22656 0.64746,0.64453 m -0.52686,-1.84766 c 0.0767,0.1084 0.041,0.3252 -0.0703,0.41992 -0.1709,0.10742 -0.39355,-0.0547 -0.49267,-0.24316 -0.0996,-0.18946 -0.0239,-0.48731 0.23584,-0.47363 0.0605,-0.0137 0.24072,0.17382 0.32714,0.29687 z"
       style="fill:#2e86d0;fill-opacity:1;fill-rule:nonzero;stroke:none"
       id="path268" /><path
       d="m 107.09375,300.23535 c 0.32813,-0.24707 0.45703,-0.66308 0.71533,-1 l -0.0254,-0.13476 c -0.4541,-0.39161 -0.84961,0.25781 -0.97314,0.63379 -0.18262,0.3916 -0.36768,0.7832 -0.70313,1.06738 0.0137,0.0674 0.0264,0.13476 0.04,0.20312 -0.16162,0.17578 -0.36865,0.43067 -0.16162,0.52539 0.0855,0.12207 0.23535,-0.12207 0.40625,-0.22851 0.2583,-0.33692 0.30664,-0.76856 0.70166,-1.06641 z"
       style="fill:#2e86d0;fill-opacity:1;fill-rule:nonzero;stroke:none"
       id="path270" /><path
       d="m 108.95703,301.96875 c 0.004,-0.0684 -0.10547,-0.18457 -0.12012,-0.25195 -0.21484,0.19726 -0.42822,0.3955 -0.61425,0.72754 -0.0601,0.0176 -0.18164,0.0488 -0.23047,0.13183 -0.0601,0.0176 -0.0464,0.084 -0.0312,0.14844 0.19726,0.0205 0.35156,-0.16211 0.52051,-0.27637 0.0591,-0.0176 0.13671,0.0332 0.19628,0.0186 0.16846,-0.11524 0.26319,-0.28125 0.2793,-0.49805 z"
       style="fill:#2e86d0;fill-opacity:1;fill-rule:nonzero;stroke:none"
       id="path272" /><path
       d="m 81.17871,289.54395 c 0.05908,-0.0488 0.14649,-0.12598 0.19287,-0.18555 0.09961,-0.0654 0.20166,-0.0732 0.30908,-0.0254 0.10157,-0.009 0.19288,-0.27246 0.29688,-0.28028 0.14795,-0.0693 0.24023,-0.33203 0.38525,-0.45898 0.09912,-0.0625 0.20264,-0.1582 0.30078,-0.22266 0.14014,-0.18066 0.23145,-0.35742 0.37647,-0.48242 0.09473,-0.12207 0.25195,-0.0791 0.35596,-0.0859 0.20068,-0.0742 0.28125,-0.36328 0.42382,-0.54589 0.05176,-0.004 0.14112,-0.18067 0.13868,-0.23926 0.09668,-0.0625 0.19189,-0.18262 0.34179,-0.25098 0.04492,-0.0615 0.03907,-0.1748 0.08448,-0.23535 0.3706,-0.59668 0.85888,-0.97559 1.17334,-1.625 0,0 0.04101,-0.11816 0.03808,-0.17383 0.38428,-0.37109 0.55225,-0.89551 0.88233,-1.31933 0.09033,-0.17579 0.17382,-0.4668 0.25732,-0.69922 0.09521,-0.1211 0.19434,-0.1875 0.28711,-0.3086 0.13867,-0.23632 0.27246,-0.53125 0.30176,-0.81738 -0.0078,-0.11133 -0.08203,-0.44531 -0.27686,-0.25976 -0.23926,0.24609 -0.21533,0.58105 -0.45849,0.77343 0.0044,0.0557 -0.06153,0.2041 -0.11084,0.26172 -0.09815,0.11719 -0.27442,0.11035 -0.31495,0.28223 0.01319,0.16894 -0.17724,0.30762 -0.27441,0.42578 -0.24463,0.34961 -0.59961,0.47949 -0.89307,0.83398 -0.05322,9.8e-4 -0.10498,0.003 -0.15869,-0.0498 -0.0542,-0.11035 -0.21435,-0.27246 -0.06836,-0.44824 0.20117,-0.12403 0.29541,-0.3545 0.54883,-0.48047 0.14893,-0.11817 0.1875,-0.45996 0.27832,-0.74805 0.09815,-0.11621 0.19727,-0.2334 0.34863,-0.29883 0.14942,-0.11914 0.09034,-0.2998 0.23194,-0.48144 -0.0044,-0.0576 -0.05957,-0.10742 -0.06446,-0.16406 0.0918,-0.17872 0.29883,-0.13672 0.4419,-0.31836 0.10937,0.10253 0.26074,0.0205 0.35107,-0.14356 -0.16699,-0.1582 -0.12451,-0.27344 -0.18798,-0.43945 -0.17432,-0.26758 0.21923,-0.52637 0.4663,-0.65918 0.15528,-0.0127 0.1333,-0.29395 0.27979,-0.41992 0.09082,-0.17676 0.34619,-0.19825 0.48389,-0.43653 0.04394,-0.11718 -0.0625,-0.16406 -0.12305,-0.27246 -0.01318,-0.16894 0.18896,-0.24121 0.28711,-0.30664 0.09765,-0.0654 0.1416,-0.18262 0.18408,-0.29883 -0.15771,-0.0439 -0.46191,0.16602 -0.61572,0.17969 -0.09619,0.0439 -0.28223,0.2666 -0.47852,0.30957 -0.06836,0.0156 -0.11572,-0.14844 -0.18896,-0.13281 -0.09278,0.0186 -0.19287,0.0371 -0.29492,0.0557 -0.10889,0.0195 -0.37012,0.30664 -0.48194,0.3252 -0.1289,0.0215 -0.28613,-0.21387 -0.41064,-0.19336 -0.46387,0.0781 -0.48194,0.11035 -0.62696,0.1709 -0.17285,0.0703 -0.33593,0.14941 -0.48877,0.23535 -0.10009,0.0557 -0.07226,0.18848 -0.16601,0.24805 -0.09375,0.0615 -0.29492,0.0605 -0.38965,0.11914 -0.37061,0.22851 -0.7207,0.74121 -1.0376,0.90625 -0.20898,0.10839 -0.38476,0.21484 -0.61621,0.32617 -0.11474,0.0713 -0.19531,0.22949 -0.33691,0.27637 -0.43555,0.14746 -0.78565,0.42285 -1.28223,0.5625 -0.94141,0.26757 -1.72266,-0.27247 -2.48828,-0.66895 -0.03955,0.002 -0.12012,0.01 -0.1626,-0.0205 -0.17627,-0.14941 -0.38428,-0.23144 -0.55859,-0.34765 -0.23731,-0.18848 -0.5669,-0.23633 -0.8291,-0.39063 -0.08399,-0.0488 -0.09278,-0.20117 -0.17383,-0.25098 -0.12451,-0.0723 -0.34668,-0.0879 -0.46973,-0.16308 -0.11035,-0.0732 -0.12451,-0.2041 -0.2334,-0.28418 -0.21875,-0.17774 -0.43408,-0.32129 -0.73095,-0.46094 -0.16993,-0.0869 -1.57959,-0.32812 -1.81446,-0.33203 -0.36377,-0.004 -0.61572,-0.30469 -1.15771,-0.30371 -0.82471,0.005 -1.64942,0.0215 -2.33447,0.53223 -0.14454,0.12402 -0.17237,0.46679 -0.26905,0.53027 -0.2959,0.19531 -0.26709,0.58789 -0.35107,0.87891 -0.09619,0.0635 -0.30176,0.0801 -0.28955,0.25097 0.11328,0.83985 0.5293,1.60059 1.03808,2.18067 0.11914,0.21875 0.38428,0.30957 0.40528,0.59277 0,0 0.45752,0.64355 0.73535,0.90137 0.06055,0.11035 -0.03027,0.28808 0.02881,0.39648 0.42138,0.81543 1.18408,1.37598 1.80664,2.12012 0.16553,0.15527 0.28467,0.37304 0.54492,0.41015 0.10547,-0.009 0.20605,-0.0166 0.26514,0.0899 0.12304,0.27344 0.34179,0.42578 0.50488,0.52637 0.59619,0.40625 1.09668,1.01855 1.77734,1.13183 0.10596,0.0478 0.16602,0.15527 0.27149,0.20606 0.11328,0.10351 0.30957,-0.0264 0.41553,0.0215 0.50634,0.22852 0.96826,0.71777 1.48828,0.78906 0.10644,0.0478 0.16699,0.15625 0.21728,0.15332 0.4624,-0.04 1.00635,0.37012 1.43994,-0.0625 0.3916,0.0801 0.97559,-9.7e-4 1.22217,-0.21093 m 3.53565,-4.94922 c 0.0015,0.0586 0.0039,0.11425 0.0054,0.16992 -0.20069,0.12305 -0.29004,0.46777 -0.5459,0.53613 -0.05029,0.003 -0.15576,-0.0488 -0.1582,-0.10547 -0.0127,-0.33886 0.13232,-0.57129 0.2749,-0.86133 0.06006,0.22266 0.21338,0.21582 0.31103,0.042 0.05225,0.0537 0.10889,0.16308 0.1128,0.21875 z"
       style="fill:#359a3e;fill-opacity:1;fill-rule:nonzero;stroke:none"
       id="path274" /></g></svg>
