<?xml version="1.0" encoding="UTF-8" standalone="no"?>
<!-- Created with Inkscape (http://www.inkscape.org/) -->

<svg
   width="112.97408mm"
   height="34.277184mm"
   viewBox="0 0 112.97408 34.277184"
   version="1.1"
   id="svg5"
   xml:space="preserve"
   inkscape:version="1.2 (dc2aedaf03, 2022-05-15)"
   sodipodi:docname="azurelife.svg"
   xmlns:inkscape="http://www.inkscape.org/namespaces/inkscape"
   xmlns:sodipodi="http://sodipodi.sourceforge.net/DTD/sodipodi-0.dtd"
   xmlns="http://www.w3.org/2000/svg"
   xmlns:svg="http://www.w3.org/2000/svg"><sodipodi:namedview
     id="namedview7"
     pagecolor="#ffffff"
     bordercolor="#000000"
     borderopacity="0.25"
     inkscape:showpageshadow="2"
     inkscape:pageopacity="0.0"
     inkscape:pagecheckerboard="0"
     inkscape:deskcolor="#d1d1d1"
     inkscape:document-units="mm"
     showgrid="false"
     inkscape:zoom="1.1893044"
     inkscape:cx="517.94982"
     inkscape:cy="-142.9407"
     inkscape:window-width="2880"
     inkscape:window-height="1514"
     inkscape:window-x="3373"
     inkscape:window-y="-11"
     inkscape:window-maximized="1"
     inkscape:current-layer="text521" /><defs
     id="defs2"><linearGradient
       id="e399c19f-b68f-429d-b176-18c2117ff73c"
       x1="-1032.172"
       x2="-1059.213"
       y1="145.312"
       y2="65.426003"
       gradientTransform="matrix(1,0,0,-1,1075,158)"
       gradientUnits="userSpaceOnUse"><stop
         offset="0"
         stop-color="#114a8b"
         id="stop256" /><stop
         offset="1"
         stop-color="#0669bc"
         id="stop258" /></linearGradient><linearGradient
       id="ac2a6fc2-ca48-4327-9a3c-d4dcc3256e15"
       x1="-1023.725"
       x2="-1029.98"
       y1="108.083"
       y2="105.968"
       gradientTransform="matrix(1,0,0,-1,1075,158)"
       gradientUnits="userSpaceOnUse"><stop
         offset="0"
         stop-opacity=".3"
         id="stop261" /><stop
         offset=".071"
         stop-opacity=".2"
         id="stop263" /><stop
         offset=".321"
         stop-opacity=".1"
         id="stop265" /><stop
         offset=".623"
         stop-opacity=".05"
         id="stop267" /><stop
         offset="1"
         stop-opacity="0"
         id="stop269" /></linearGradient><linearGradient
       id="a7fee970-a784-4bb1-af8d-63d18e5f7db9"
       x1="-1027.165"
       x2="-997.48199"
       y1="147.642"
       y2="68.560997"
       gradientTransform="matrix(1,0,0,-1,1075,158)"
       gradientUnits="userSpaceOnUse"><stop
         offset="0"
         stop-color="#3ccbf4"
         id="stop272" /><stop
         offset="1"
         stop-color="#2892df"
         id="stop274" /></linearGradient></defs><g
     inkscape:label="Layer 1"
     inkscape:groupmode="layer"
     id="layer1"
     transform="translate(-48.51296,-131.36141)"><g
       id="g587"
       transform="translate(30.869011)"><g
         id="g307"
         transform="matrix(0.41341146,0,0,0.41341146,15.988849,128.65646)"><path
           fill="url(#e399c19f-b68f-429d-b176-18c2117ff73c)"
           d="m 33.338,6.544 h 26.038 l -27.03,80.087 a 4.152,4.152 0 0 1 -3.933,2.824 H 8.149 A 4.145,4.145 0 0 1 4.221,83.985 L 29.404,9.368 a 4.152,4.152 0 0 1 3.934,-2.825 z"
           id="path279"
           style="fill:url(#e399c19f-b68f-429d-b176-18c2117ff73c)" /><path
           fill="#0078d4"
           d="M 71.175,60.261 H 29.885 A 1.911,1.911 0 0 0 28.58,63.57 l 26.532,24.764 a 4.171,4.171 0 0 0 2.846,1.121 h 23.38 z"
           id="path281" /><path
           fill="url(#ac2a6fc2-ca48-4327-9a3c-d4dcc3256e15)"
           d="M 33.338,6.544 A 4.118,4.118 0 0 0 29.395,9.423 L 4.252,83.917 a 4.14,4.14 0 0 0 3.908,5.538 h 20.787 a 4.443,4.443 0 0 0 3.41,-2.9 l 5.014,-14.777 17.91,16.705 a 4.237,4.237 0 0 0 2.666,0.972 H 81.24 L 71.024,60.261 41.243,60.268 59.47,6.544 Z"
           id="path283"
           style="fill:url(#ac2a6fc2-ca48-4327-9a3c-d4dcc3256e15)" /><path
           fill="url(#a7fee970-a784-4bb1-af8d-63d18e5f7db9)"
           d="M 66.595,9.364 A 4.145,4.145 0 0 0 62.667,6.544 H 33.648 a 4.146,4.146 0 0 1 3.928,2.82 l 25.184,74.62 a 4.146,4.146 0 0 1 -3.928,5.472 h 29.02 a 4.146,4.146 0 0 0 3.927,-5.472 z"
           id="path285"
           style="fill:url(#a7fee970-a784-4bb1-af8d-63d18e5f7db9)" /></g><g
         aria-label="슬기로운
Azure 생활"
         id="text521"
         style="font-size:14.1111px;font-family:Ubuntu;-inkscape-font-specification:Ubuntu;stroke-width:1.33456"><path
           d="m 71.53482,137.60405 q -1.446939,-0.19982 -2.776745,-0.8406 -1.329806,-0.64079 -2.080836,-1.46072 -1.619194,1.77766 -4.781789,2.28754 l -0.916395,-1.28847 q 2.177299,-0.15847 3.507105,-1.00596 1.329806,-0.8475 1.329806,-1.67432 v -0.55121 h 1.708766 v 0.55121 q 0,0.83371 1.364257,1.68121 1.371146,0.8406 3.458873,1.01285 z m -11.024297,2.04638 v -1.41248 h 12.333432 v 1.41248 z m 1.805228,6.40099 v -3.43821 H 69.3024 v -0.70969 h -6.986649 v -1.40559 h 8.709195 v 3.4382 h -6.986648 v 0.70969 h 7.310487 v 1.4056 z"
           style="font-weight:bold"
           id="path308" /><path
           d="m 84.047397,146.27879 v -13.29117 h 1.694986 v 13.29117 z m -2.032605,-12.11983 q -0.04823,2.84564 -1.612303,5.25721 -1.557182,2.40467 -4.382158,3.95496 l -1.329806,-1.25401 q 2.039495,-0.77859 3.589787,-2.57693 1.550291,-1.79834 1.901691,-3.9274 h -4.685326 v -1.45383 z"
           style="font-weight:bold"
           id="path310" /><path
           d="m 88.732723,144.48734 v -1.44004 h 5.305443 v -1.86035 H 90.48283 v -4.27881 h 7.04177 v -1.3367 h -7.014209 v -1.42626 h 8.750536 v 4.14789 h -7.04177 v 1.46761 h 7.393169 v 1.42627 h -3.851613 v 1.86035 h 5.305447 v 1.44004 z"
           style="font-weight:bold"
           id="path312" /><path
           d="m 109.01054,138.77538 q -2.1084,0 -3.3004,-0.73725 -1.18511,-0.73725 -1.18511,-1.97748 0,-1.23335 1.21267,-1.99816 1.21267,-0.76481 3.27284,-0.76481 2.06017,0 3.27284,0.76481 1.21267,0.76481 1.21267,1.99816 0,1.23334 -1.19889,1.97748 -1.19889,0.73725 -3.28662,0.73725 z m 0,-4.06521 q -1.32981,0 -2.02571,0.37207 -0.69591,0.37207 -0.69591,0.97841 0,0.60633 0.7028,0.95773 0.7028,0.34451 2.01882,0.34451 1.31603,0 2.01882,-0.34451 0.7028,-0.3514 0.7028,-0.95773 0,-0.60634 -0.6959,-0.97841 -0.69591,-0.37207 -2.02572,-0.37207 z m 0.86127,6.44921 v 2.18419 h -1.73632 v -2.18419 h -5.29167 v -1.45382 h 12.33344 v 1.45382 z m -5.22276,4.55442 v -3.7207 h 1.73633 v 2.26687 h 7.15201 v 1.45383 z"
           style="font-weight:bold"
           id="path314" /><path
           d="m 67.298127,162.78591 q -0.155222,-0.508 -0.352777,-1.04422 -0.183444,-0.53622 -0.366889,-1.07244 h -3.809997 q -0.183444,0.53622 -0.381,1.07244 -0.183444,0.53622 -0.338666,1.04422 H 59.7628 q 0.550333,-1.58044 1.044221,-2.92099 0.493889,-1.34056 0.959555,-2.52589 0.479777,-1.18533 0.931333,-2.24367 0.465666,-1.07244 0.959554,-2.08844 h 2.102554 q 0.479778,1.016 0.945444,2.08844 0.465666,1.05834 0.931333,2.24367 0.479777,1.18533 0.973666,2.52589 0.493888,1.34055 1.044221,2.92099 z m -2.638775,-7.56355 q -0.07056,0.21167 -0.211667,0.57856 -0.141111,0.36689 -0.324555,0.84666 -0.183444,0.47978 -0.409222,1.05834 -0.211667,0.57855 -0.437444,1.21355 h 2.779887 q -0.225778,-0.635 -0.437445,-1.21355 -0.211666,-0.57856 -0.409221,-1.05834 -0.183445,-0.47977 -0.324556,-0.84666 -0.141111,-0.36689 -0.225777,-0.57856 z"
           style="font-weight:bold"
           id="path316" /><path
           d="m 76.583251,156.77458 q -0.254,0.28223 -0.691444,0.762 -0.423333,0.47978 -0.917222,1.05834 -0.493888,0.57855 -1.001888,1.21355 -0.493888,0.635 -0.90311,1.22767 h 3.584219 v 1.74977 h -6.138328 v -1.24177 q 0.296333,-0.508 0.705555,-1.08656 0.423333,-0.59266 0.874888,-1.18533 0.465666,-0.59267 0.917222,-1.143 0.451555,-0.56444 0.832554,-1.016 h -3.160886 v -1.74978 h 5.89844 z"
           style="font-weight:bold"
           id="path318" /><path
           d="m 84.4008,162.53191 q -0.536222,0.15523 -1.382888,0.28223 -0.846666,0.14111 -1.777999,0.14111 -0.945443,0 -1.580443,-0.254 -0.620888,-0.254 -0.987777,-0.70556 -0.366888,-0.46566 -0.52211,-1.10066 -0.155223,-0.635 -0.155223,-1.397 v -4.13456 h 2.102554 v 3.88056 q 0,1.016 0.268111,1.46755 0.268111,0.45156 1.001888,0.45156 0.225778,0 0.479778,-0.0141 0.254,-0.0282 0.451555,-0.0565 v -5.72911 H 84.4008 Z"
           style="font-weight:bold"
           id="path320" /><path
           d="m 90.849584,157.22614 q -0.282222,-0.0706 -0.663222,-0.14111 -0.381,-0.0847 -0.818444,-0.0847 -0.197555,0 -0.479777,0.0423 -0.268111,0.0282 -0.409222,0.0705 v 5.67266 h -2.102554 v -7.02732 q 0.564444,-0.19756 1.326443,-0.36689 0.776111,-0.18345 1.721555,-0.18345 0.169333,0 0.409222,0.0282 0.239888,0.0141 0.479777,0.0565 0.239889,0.0282 0.479777,0.0847 0.239889,0.0423 0.409222,0.11288 z"
           style="font-weight:bold"
           id="path322" /><path
           d="m 91.837369,159.13114 q 0,-0.98778 0.296333,-1.72156 0.310445,-0.74788 0.804333,-1.24177 0.493889,-0.49389 1.128888,-0.74789 0.649111,-0.254 1.326443,-0.254 1.580444,0 2.497665,0.97367 0.917222,0.95955 0.917222,2.83633 0,0.18344 -0.01411,0.40922 -0.01411,0.21166 -0.02822,0.381 h -4.769551 q 0.07055,0.64911 0.606777,1.03011 0.536222,0.381 1.439332,0.381 0.578555,0 1.128888,-0.0988 0.564444,-0.11289 0.917222,-0.26811 l 0.282222,1.70744 q -0.169334,0.0847 -0.451556,0.16934 -0.282222,0.0847 -0.634999,0.14111 -0.338667,0.0705 -0.733777,0.11289 -0.395111,0.0423 -0.790222,0.0423 -1.001888,0 -1.749776,-0.29633 -0.733778,-0.29634 -1.227666,-0.80434 -0.479777,-0.52211 -0.719666,-1.22766 -0.225778,-0.70556 -0.225778,-1.524 z m 4.938885,-0.80433 q -0.01411,-0.26812 -0.09878,-0.52211 -0.07056,-0.254 -0.239889,-0.45156 -0.155222,-0.19756 -0.409222,-0.32456 -0.239889,-0.127 -0.606777,-0.127 -0.352778,0 -0.606778,0.127 -0.253999,0.11289 -0.423333,0.31045 -0.169333,0.19755 -0.268111,0.46567 -0.08467,0.25399 -0.126999,0.52211 z"
           style="font-weight:bold"
           id="path324" /><path
           d="m 113.53725,158.67936 v -3.10747 h -1.04041 v 2.68717 h -1.69499 v -7.25536 h 1.69499 v 3.12125 h 1.04041 v -3.38997 h 1.70877 v 7.94438 z m -3.90673,-0.68902 q -1.45383,-0.88883 -2.39778,-2.35644 -0.31695,0.6339 -1.04731,1.45383 -0.73036,0.81993 -1.4056,1.22645 l -1.24712,-1.21267 q 1.2609,-0.62701 2.0326,-1.79145 0.77859,-1.17133 0.77859,-2.48736 v -1.53651 h 1.65365 v 1.53651 q 0,1.21268 0.75792,2.30822 0.76481,1.09554 1.93614,1.55718 z m 1.18511,6.02203 q -2.1084,0 -3.31418,-0.73036 -1.19889,-0.72347 -1.19889,-1.90858 0,-1.17134 1.19889,-1.90859 1.19889,-0.74414 3.31418,-0.74414 2.1084,0 3.3004,0.75103 1.19889,0.74414 1.19889,1.9017 0,1.17822 -1.19889,1.90858 -1.19889,0.73036 -3.3004,0.73036 z m 0,-3.8654 q -1.37804,0 -2.06705,0.34451 -0.68213,0.34451 -0.68213,0.88195 0,0.54432 0.68902,0.88883 0.6959,0.33762 2.06016,0.33762 1.35737,0 2.04639,-0.33762 0.68902,-0.33762 0.68902,-0.88883 0,-0.54433 -0.68213,-0.88195 -0.68213,-0.34451 -2.05328,-0.34451 z"
           style="font-weight:bold"
           id="path326" /><path
           d="m 118.11234,152.76758 v -1.22645 h 3.05924 v -1.04731 h 1.72255 v 1.04731 h 3.09369 v 1.22645 z m 10.55577,3.12126 v 2.52181 h -1.73633 v -7.67567 h 1.73633 v 3.70003 h 1.94992 v 1.45383 z m -2.27377,2.25309 q -4.36148,0.25494 -8.6334,0.25494 l -0.18603,-1.32292 q 1.6123,0 3.58289,-0.0482 v -0.565 q -2.61138,-0.24115 -2.61138,-1.67431 0,-0.83371 0.95085,-1.28158 0.95773,-0.45475 2.53559,-0.45475 3.48643,0 3.48643,1.73633 0,0.68213 -0.68902,1.11621 -0.68213,0.42719 -1.93614,0.54432 v 0.53744 q 1.84657,-0.0276 3.38997,-0.12403 z m -4.36148,-3.89296 q -1.06798,0 -1.42627,0.13092 -0.3514,0.13091 -0.3514,0.4203 0,0.26872 0.37896,0.39274 0.37896,0.11713 1.39871,0.11713 0.97151,0 1.36425,-0.11713 0.39963,-0.12402 0.39963,-0.4203 0,-0.2825 -0.39963,-0.39963 -0.39963,-0.12403 -1.36425,-0.12403 z m -1.88791,9.70827 v -3.14881 h 6.81439 v -0.565 h -6.81439 v -1.30913 h 8.52316 v 3.05924 h -6.80062 v 0.65457 h 7.12445 v 1.30913 z"
           style="font-weight:bold"
           id="path328" /></g></g></g></svg>
